<svg width="189" height="136" viewBox="0 0 189 136" fill="none" xmlns="http://www.w3.org/2000/svg">
<path d="M155.597 9.97161C144.811 9.43479 127.512 8.81508 111.851 9.32072C105.76 9.51731 100.939 14.545 101.005 20.6299C101.067 26.3859 101.287 34.2914 101.884 43.9446C102.244 49.7528 106.999 54.3217 112.825 54.4545C113.005 54.4587 113.201 54.4626 113.385 54.4667C112.737 59.3383 108.799 63.8208 108.799 63.8208C116.967 63.3676 120.592 57.7699 121.996 54.6137C130.803 54.722 142.031 54.7343 154.491 54.4472C160.363 54.3119 165.137 49.6764 165.438 43.8191C165.768 37.4073 166.137 28.9648 166.261 21.3498C166.359 15.3042 161.645 10.2726 155.597 9.97161Z" fill="white"/>
<path opacity="0.23" d="M166.261 21.3475C166.139 28.9651 165.764 37.4001 165.435 43.8181C165.136 49.6706 160.361 54.3084 154.485 54.4459C142.028 54.7286 130.803 54.721 121.995 54.6141C120.587 57.7696 116.968 63.3623 108.796 63.8208C108.796 63.8208 110.043 62.3997 111.244 60.2909C115.514 58.335 117.718 54.744 118.743 52.4441C127.55 52.5512 138.776 52.5664 151.233 52.2761C157.109 52.1461 161.884 47.5084 162.183 41.6482C162.512 35.2378 162.879 26.7951 163.001 19.1777C163.055 15.9381 161.731 12.9965 159.558 10.9107C163.575 12.6679 166.33 16.7097 166.261 21.3475Z" fill="#32344D"/>
<path d="M153.94 29.4951C153.045 45.9221 133.632 48.474 133.632 48.474H133.617C132.997 48.3823 114.204 45.647 113.324 29.4951C112.437 13.091 130.173 13.198 133.617 21.7018C133.624 21.7095 133.624 21.7248 133.632 21.7324C137.045 13.198 154.835 13.0681 153.94 29.4951Z" fill="#2F80ED"/>
<path d="M141.893 31.3014H135.623V25.0407H131.711V31.3014H125.441V35.207H131.711V41.4677H135.623V35.207H141.893V31.3014Z" fill="white"/>
<path opacity="0.35" d="M153.94 29.4951C153.045 45.9221 133.632 48.474 133.632 48.474H133.617V21.7018C133.624 21.7095 133.624 21.7248 133.632 21.7324C137.045 13.198 154.835 13.0681 153.94 29.4951Z" fill="#2F80ED"/>
<path d="M178.166 71.2628C167.38 70.726 150.082 70.1063 134.42 70.6119C128.329 70.8085 123.508 75.8362 123.574 81.9211C123.636 87.6771 123.856 95.5826 124.454 105.236C124.813 111.044 129.568 115.613 135.394 115.746C135.574 115.75 135.77 115.754 135.954 115.758C135.306 120.63 131.368 125.112 131.368 125.112C139.536 124.659 143.161 119.061 144.565 115.905C153.372 116.013 164.6 116.026 177.06 115.738C182.932 115.603 187.706 110.968 188.008 105.11C188.337 98.6985 188.706 90.256 188.83 82.641C188.928 76.5954 184.214 71.5638 178.166 71.2628Z" fill="white"/>
<path opacity="0.23" d="M188.832 82.6421C188.71 90.2596 188.335 98.6947 188.006 105.113C187.708 110.965 182.933 115.603 177.056 115.741C164.599 116.023 153.374 116.016 144.567 115.909C143.159 119.064 139.539 124.657 131.367 125.115C131.367 125.115 132.614 123.694 133.816 121.585C138.085 119.63 140.289 116.039 141.315 113.739C150.122 113.846 161.347 113.861 173.804 113.571C179.681 113.441 184.455 108.803 184.754 102.943C185.083 96.5325 185.45 88.0898 185.573 80.4722C185.626 77.2327 184.302 74.2911 182.129 72.2053C186.147 73.9626 188.901 78.0044 188.832 82.6421Z" fill="#32344D"/>
<path d="M168.226 89.5414C167.843 99.3441 157.284 100.33 157.284 100.33V103.928H152.54V95.5239C152.54 95.5239 153.603 95.6614 155.027 95.585C157.2 95.4551 160.215 94.8057 161.599 92.3455C163.895 88.2655 161.217 81.901 155.348 83.2992C155.233 83.3221 155.126 83.3527 155.027 83.3832C149.548 84.9572 151.392 91.4515 151.392 91.4515H146.166C146.166 91.4515 142.592 82.9172 150.374 78.7149C151.912 77.8821 153.481 77.3855 155.027 77.1792C162.089 76.2471 168.54 81.496 168.226 89.5414Z" fill="#2F80ED"/>
<path d="M158.026 108.322C158.026 109.98 156.687 111.317 155.027 111.317C153.374 111.317 152.035 109.98 152.035 108.322C152.035 106.671 153.374 105.334 155.027 105.334C156.687 105.334 158.026 106.671 158.026 108.322Z" fill="#2F80ED"/>
<path opacity="0.35" d="M158.026 108.322C158.026 109.98 156.687 111.317 155.027 111.317V105.334C156.687 105.334 158.026 106.671 158.026 108.322Z" fill="#2D9CDB"/>
<path opacity="0.35" d="M168.226 89.5414C167.843 99.3441 157.284 100.33 157.284 100.33V103.928H155.027V95.585C157.2 95.4551 160.215 94.8057 161.599 92.3455C163.895 88.2655 161.217 81.901 155.348 83.2992C155.233 83.3221 155.126 83.3527 155.027 83.3832V77.1792C162.089 76.2471 168.54 81.496 168.226 89.5414Z" fill="#2D9CDB"/>
<path d="M31.3139 2.16671C42.0994 1.62989 59.3982 1.01017 75.0597 1.51582C81.1508 1.71249 85.9717 6.74021 85.9059 12.8251C85.8437 18.5811 85.6235 26.4865 85.0261 36.1397C84.6667 41.948 79.9117 46.5168 74.0853 46.6497C73.9055 46.6538 73.7097 46.6577 73.5257 46.6618C74.1739 51.5334 78.1114 56.0159 78.1114 56.0159C69.9436 55.5628 66.3186 49.965 64.9146 46.8088C56.1075 46.9172 44.88 46.9294 32.4199 46.6423C26.5478 46.507 21.7734 41.8715 21.4721 36.0142C21.1423 29.6024 20.7732 21.16 20.6497 13.545C20.5517 7.49929 25.2659 2.46782 31.3139 2.16671Z" fill="white"/>
<path opacity="0.23" d="M20.6495 13.4102C20.772 21.0277 21.1469 29.4628 21.4759 35.8807C21.7744 41.7333 26.5491 46.3711 32.4257 46.5086C44.8829 46.7913 56.1081 46.7837 64.9154 46.6767C66.3232 49.8323 69.9426 55.425 78.1148 55.8834C78.1148 55.8834 76.8675 54.4623 75.6661 52.3535C71.3964 50.3976 69.1927 46.8066 68.1674 44.5068C59.3602 44.6138 48.1349 44.6291 35.6777 44.3387C29.8011 44.2088 25.0264 39.5711 24.7279 33.7109C24.3989 27.3005 24.0317 18.8578 23.9092 11.2403C23.8556 8.00082 25.1795 5.05917 27.3525 2.97333C23.3353 4.73063 20.5807 8.77243 20.6495 13.4102Z" fill="#32344D"/>
<path d="M61.7285 19.037V37.9495C61.7285 38.4773 61.2984 38.9066 60.7698 38.9066H44.5854C44.0496 38.9066 43.6267 38.4773 43.6267 37.9495V19.037H61.7285Z" fill="#2F80ED"/>
<path d="M63.1594 16.7073V19.9379C63.1594 20.304 62.8703 20.5925 62.5038 20.5925H42.7245C42.358 20.5925 42.0618 20.304 42.0618 19.9379V16.7073C42.0618 16.3413 42.358 16.0457 42.7245 16.0457H62.5038C62.8703 16.0457 63.1594 16.3413 63.1594 16.7073Z" fill="#2F80ED"/>
<path d="M61.376 16.4468H43.6197L43.8664 16.0456L45.5581 13.3288C45.6991 13.1106 45.9388 12.9769 46.1926 12.9769H58.8031C59.0569 12.9769 59.2966 13.1106 59.4375 13.3288L61.1293 16.0456L61.376 16.4468Z" fill="#2F80ED"/>
<path d="M60.6153 20.5955V26.27L49.1502 37.7119H45.5759C45.1059 37.7119 44.7348 37.3352 44.7348 36.8721V33.2414L57.3996 20.5955H60.6153Z" fill="white"/>
<path opacity="0.35" d="M63.1594 16.7073V19.9379C63.1594 20.304 62.8703 20.5925 62.5038 20.5925H61.7285V37.9494C61.7285 38.4773 61.2984 38.9066 60.7698 38.9066H52.6776V12.9769H58.8031C59.0569 12.9769 59.2966 13.1106 59.4375 13.3288L61.1293 16.0456H62.5038C62.8703 16.0456 63.1594 16.3412 63.1594 16.7073Z" fill="#2F80ED"/>
<path d="M79.2285 25.3811C79.2285 29.217 76.1128 32.3281 72.2711 32.3281C70.7556 32.3281 69.3529 31.8424 68.211 31.0119C67.7246 30.667 67.2876 30.2587 66.9069 29.8012C65.913 28.5976 65.3209 27.0562 65.3209 25.3811C65.3209 21.5521 68.4365 18.4411 72.2711 18.4411C73.9488 18.4411 75.4855 19.0323 76.6908 20.0248H76.698C77.1561 20.4048 77.5649 20.8413 77.9103 21.3269C78.7421 22.4672 79.2285 23.8678 79.2285 25.3811Z" fill="#2F80ED"/>
<path d="M77.9103 21.3269L68.211 31.0119C67.7246 30.667 67.2876 30.2588 66.9069 29.8013L76.6908 20.0248H76.698C77.1561 20.4049 77.5649 20.8413 77.9103 21.3269Z" fill="white"/>
<path d="M33.9261 20.6913L39.8836 29.2427C40.9422 30.7623 40.5671 32.8492 39.0453 33.9062C37.5234 34.9634 35.4334 34.5887 34.3747 33.0691L28.4173 24.5177C27.3586 22.9981 27.7338 20.9113 29.2557 19.8542C30.0195 19.3237 30.9157 19.1556 31.7652 19.3028C32.6091 19.4541 33.3987 19.9344 33.9261 20.6913Z" fill="#2F80ED"/>
<path opacity="0.85" d="M33.9261 20.6913L36.9048 24.967L31.396 28.7934L28.4173 24.5177C27.3586 22.9981 27.7338 20.9113 29.2557 19.8542C30.0195 19.3237 30.9157 19.1556 31.7652 19.3028C32.6091 19.4541 33.3987 19.9344 33.9261 20.6913Z" fill="white"/>
<path d="M11.9726 80.2833C22.758 79.7464 40.0568 79.1268 55.7183 79.6324C61.8094 79.829 66.6303 84.8568 66.5645 90.9416C66.5022 96.6976 66.2822 104.603 65.6848 114.256C65.3254 120.065 60.5704 124.633 54.7439 124.766C54.5641 124.77 54.3683 124.774 54.1843 124.778C54.8326 129.65 58.77 134.133 58.77 134.133C50.6022 133.679 46.9771 128.082 45.5733 124.925C36.7662 125.034 25.5386 125.046 13.0786 124.759C7.20641 124.624 2.43206 119.988 2.13073 114.131C1.80093 107.719 1.43189 99.2766 1.30839 91.6616C1.21037 85.6159 5.9245 80.5844 11.9726 80.2833Z" fill="white"/>
<path opacity="0.23" d="M1.30815 91.6592C1.43058 99.2768 1.80552 107.712 2.13455 114.13C2.43297 119.982 7.20771 124.62 13.0843 124.758C25.5415 125.04 36.7667 125.033 45.5739 124.926C46.9819 128.081 50.6012 133.674 58.7733 134.133C58.7733 134.133 57.5261 132.711 56.3248 130.603C52.055 128.647 49.8513 125.056 48.826 122.756C40.0187 122.863 28.7935 122.878 16.3363 122.588C10.4597 122.458 5.685 117.82 5.38658 111.96C5.05755 105.55 4.69026 97.1068 4.56783 89.4894C4.51427 86.2498 5.83803 83.3082 8.01115 81.2224C3.99394 82.9796 1.23929 87.0214 1.30815 91.6592Z" fill="#32344D"/>
<path d="M40.9766 112.844C40.9766 116.855 37.7246 120.103 33.7074 120.103C29.6979 120.103 26.4382 116.855 26.4382 112.844C26.4382 110.621 27.4482 108.634 29.0245 107.297V88.4865C29.0245 85.904 31.1211 83.8105 33.7074 83.8105C36.3014 83.8105 38.398 85.904 38.398 88.4865V107.297C39.9743 108.634 40.9766 110.621 40.9766 112.844Z" fill="#2F80ED"/>
<path d="M38.3034 112.847C38.3034 115.368 36.2451 117.431 33.7123 117.431C31.1796 117.431 29.1212 115.368 29.1212 112.847C29.1212 111.494 29.7104 110.219 30.7511 109.34L31.6999 108.538V88.4891C31.6999 87.3812 32.6028 86.4873 33.7123 86.4873C34.8142 86.4873 35.7171 87.3812 35.7171 88.4891V108.538L36.6659 109.34C37.7066 110.219 38.3034 111.494 38.3034 112.847Z" fill="white"/>
<path d="M38.3034 112.847C38.3034 115.368 36.2451 117.431 33.7123 117.431C31.1796 117.431 29.1212 115.368 29.1212 112.847C29.1212 111.494 29.7104 110.219 30.7511 109.34L31.6999 108.538V97.6499H35.7171V108.538L36.6659 109.34C37.7066 110.219 38.3034 111.494 38.3034 112.847Z" fill="#2F80ED"/>
<path opacity="0.35" d="M40.9766 112.844C40.9766 116.855 37.7246 120.103 33.7074 120.103V83.8105C36.3014 83.8105 38.398 85.904 38.398 88.4865V107.297C39.9743 108.634 40.9766 110.621 40.9766 112.844Z" fill="#2D9CDB"/>
<path d="M49.2083 90.8097H45.2425C44.6473 90.8097 44.1647 90.3279 44.1647 89.7335C44.1647 89.1391 44.6473 88.6573 45.2425 88.6573H49.2083C49.8036 88.6573 50.2862 89.1391 50.2862 89.7335C50.2862 90.3279 49.8036 90.8097 49.2083 90.8097Z" fill="#2F80ED"/>
<path d="M49.2083 96.5917H45.2425C44.6473 96.5917 44.1647 96.1099 44.1647 95.5154C44.1647 94.9211 44.6473 94.4392 45.2425 94.4392H49.2083C49.8036 94.4392 50.2862 94.9211 50.2862 95.5154C50.2862 96.1099 49.8036 96.5917 49.2083 96.5917Z" fill="#2F80ED"/>
<path d="M49.2083 102.374H45.2425C44.6473 102.374 44.1647 101.892 44.1647 101.297C44.1647 100.703 44.6473 100.221 45.2425 100.221H49.2083C49.8036 100.221 50.2862 100.703 50.2862 101.297C50.2862 101.892 49.8036 102.374 49.2083 102.374Z" fill="#2F80ED"/>
<path d="M49.2083 108.156H45.2425C44.6473 108.156 44.1647 107.674 44.1647 107.079C44.1647 106.485 44.6473 106.003 45.2425 106.003H49.2083C49.8036 106.003 50.2862 106.485 50.2862 107.079C50.2862 107.674 49.8036 108.156 49.2083 108.156Z" fill="#2F80ED"/>
</svg>
