<svg width="138" height="136" viewBox="0 0 138 136" fill="none" xmlns="http://www.w3.org/2000/svg">
<path fill-rule="evenodd" clip-rule="evenodd" d="M92.1362 0.769324C94.3113 0.631678 96.7958 1.47953 98.693 2.31836C104.274 4.7887 109.624 7.7371 114.719 10.6142C116.391 11.5579 118.106 12.6183 119.911 13.5319C123.528 15.3641 126.946 16.818 130.563 19.0919C132.511 20.3165 134.618 21.7943 135.389 23.7397C136.842 27.4018 135.052 31.9586 133.75 34.589C132.201 37.7192 130.582 40.6474 129.106 43.5196C125.992 49.5857 123.007 55.0869 119.728 61.2962C116.432 67.537 113.526 73.422 110.622 79.3461C108.462 83.7506 105.953 88.3236 103.611 92.7469C102.294 95.2263 101.222 97.6645 98.6008 98.6711C98.075 98.8724 97.0143 99.0436 96.0521 98.9436C93.928 98.7263 91.8619 97.4751 89.9514 96.5754C88.0298 95.6695 86.1332 94.6224 84.3966 93.6563C77.4321 89.788 69.1772 86.0468 62.2686 81.8975C58.9379 79.8976 54.9452 77.4917 53.2533 74.0588C51.31 70.1101 53.8635 64.5774 55.4402 61.3877C56.9981 58.2338 58.5224 55.5377 60.0837 52.9087C61.7679 50.0756 63.3991 47.1601 64.9101 44.5241C67.9894 39.1522 71.4131 33.1742 74.0148 27.2955C75.2997 24.3932 76.8707 21.147 78.2952 18.4523C80.4584 14.3665 82.8954 9.85584 85.4894 5.87355C86.3818 4.50138 87.3908 3.07052 88.4033 2.22681C89.2119 1.55297 90.4137 0.87841 92.1362 0.769324Z" fill="#F2F2F2"/>
<path d="M112.142 15.5276C112.221 15.5493 112.339 15.5311 112.343 15.6219C113.702 15.355 114.343 13.8905 114.933 12.8504C115.218 12.3492 115.541 11.8054 115.796 11.2329C115.435 11.0225 115.075 10.8148 114.719 10.6142C114.525 10.5038 114.328 10.3947 114.133 10.2843C113.778 10.8198 113.447 11.4069 113.139 11.9864C112.589 13.0329 111.655 14.268 112.142 15.5276Z" fill="white"/>
<path d="M108.854 21.1707C108.078 22.3605 106.957 23.9333 106.362 25.2837C105.922 26.2889 105.857 27.3402 106.763 27.3892C107.453 27.4269 108.063 26.212 108.356 25.7632C108.842 25.0153 109.342 24.382 109.652 23.8507C110.529 22.3465 111.441 21.1707 111.345 19.354C110.105 18.4355 109.405 20.327 108.854 21.1707Z" fill="white"/>
<path d="M103.074 32.2676C101.809 33.7027 100.372 36.0835 99.5868 38.0079C99.3396 38.6104 98.9862 39.4639 99.6853 39.9211C100.547 39.9735 101.014 39.1326 101.381 38.5818C101.818 37.9205 102.139 37.204 102.476 36.5721C103.183 35.2503 104.203 33.8187 104.171 32.2676C103.957 32.0754 103.253 31.944 103.074 32.2676Z" fill="white"/>
<path d="M95.6004 45.1818C94.9831 45.8382 94.5055 46.9804 93.8073 48.2428C93.4888 48.8167 91.8521 50.9089 92.8101 51.494C93.3652 51.835 94.2394 50.8914 94.5041 50.5377C95.0292 49.8393 95.3022 49.2011 95.6004 48.7203C96.3978 47.4326 97.2497 46.303 97.1952 44.7981C96.6255 44.3577 95.9663 44.7918 95.6004 45.1818Z" fill="white"/>
<path d="M89.9193 57.2349C89.9186 57.36 89.7447 57.3223 89.7203 57.4258C88.6303 58.2743 87.9802 59.3166 87.2296 60.7726C86.8623 61.4863 85.1404 64.1922 86.134 64.6955C86.8644 65.0659 87.4767 64.037 87.8273 63.5463C88.7322 62.286 89.3774 61.0235 90.0206 59.7227C90.3473 59.0573 90.929 58.3541 90.7175 57.5208C90.4974 57.381 90.2894 57.2314 89.9193 57.2349Z" fill="white"/>
<path d="M82.7446 70.2443C82.0359 71.1908 81.3732 72.1246 80.5534 73.5918C80.2294 74.1678 78.4111 76.9073 79.7546 77.1309C80.4103 77.24 80.9515 76.311 81.251 75.8867C81.6721 75.2918 82.0582 74.6215 82.3466 74.165C83.1454 72.9026 83.961 71.7723 83.8409 70.2443C83.6279 70.0506 82.9241 69.9206 82.7446 70.2443Z" fill="white"/>
<path d="M76.8659 82.8712C76.6522 82.6769 75.9483 82.5483 75.7682 82.8712C75.0734 83.6282 74.5197 84.3014 73.8766 85.7386C73.7425 86.0357 73.2244 86.943 73.0121 87.728C73.4779 87.9671 73.9443 88.204 74.41 88.4416C75.0092 87.7601 75.5217 86.6731 75.6683 86.4097C76.3289 85.2388 76.9776 84.1853 76.8659 82.8712Z" fill="white"/>
<path opacity="0.38" fill-rule="evenodd" clip-rule="evenodd" d="M93.5866 74.3216C93.4154 74.9962 92.5915 74.9136 92.1432 75.0437C88.8844 75.9776 85.8322 78.0851 85.7499 82.3721C85.6647 86.9199 89.4227 90.2737 93.9999 89.804C95.9892 89.5999 97.487 88.6017 98.5358 87.4309C98.9129 87.01 99.2215 86.0943 100.186 86.5019C100.977 88.0257 99.2536 89.1973 98.2279 89.9075C92.2228 94.0575 83.4546 89.5845 84.2032 81.5473C84.544 77.89 87.5584 74.3285 91.3186 73.9077C92.2025 73.8092 93.0705 73.8427 93.5866 74.3216Z" fill="#2D9CDB"/>
<path fill-rule="evenodd" clip-rule="evenodd" d="M92.6585 77.314C93.5935 77.2085 95.1911 77.3455 96.0612 77.8299C97.7894 78.7917 99.2969 81.311 98.6392 83.8169C98.0359 86.116 94.1857 89.0875 90.8032 87.4308C89.8123 86.945 88.559 85.5358 88.2245 84.2294C87.4131 81.0622 89.3662 78.2829 91.3185 77.5209C91.6991 77.3706 92.1495 77.372 92.6585 77.314Z" fill="white"/>
<path opacity="0.38" fill-rule="evenodd" clip-rule="evenodd" d="M92.7612 78.0368C93.8219 79.5404 94.4524 81.9387 94.8245 84.2294C94.9342 84.9081 95.3364 85.8091 94.7212 86.3991C93.8462 86.5921 93.6312 85.626 93.3806 84.9543C93.1529 84.3419 92.9385 83.5478 92.7612 82.8886C92.3827 81.4717 91.8011 79.3831 92.0392 78.3479C92.0357 78.1697 92.116 78.0795 92.2465 78.0368H92.7612Z" fill="#2D9CDB"/>
<path opacity="0.38" fill-rule="evenodd" clip-rule="evenodd" d="M104.483 56.4219C104.313 57.0965 103.487 57.0154 103.04 57.144C99.7808 58.0779 96.728 60.1861 96.6464 64.4725C96.5604 69.0195 100.319 72.3734 104.896 71.9051C106.886 71.7024 108.384 70.7014 109.432 69.5312C109.809 69.1097 110.119 68.1962 111.082 68.6016C111.873 70.1275 110.15 71.2983 109.124 72.0085C103.12 76.1579 94.3511 71.6863 95.099 63.6483C95.4404 59.9904 98.4549 56.4289 102.214 56.0074C103.098 55.9082 103.967 55.9445 104.483 56.4219Z" fill="#2D9CDB"/>
<path fill-rule="evenodd" clip-rule="evenodd" d="M103.556 59.4145C104.49 59.3089 106.088 59.4473 106.958 59.9324C108.684 60.8908 110.193 63.4107 109.536 65.9174C108.932 68.2172 105.082 71.1879 101.698 69.5313C100.71 69.0448 99.4561 67.6362 99.121 66.3312C98.3089 63.1633 100.264 60.3853 102.214 59.6214C102.597 59.4725 103.045 59.4725 103.556 59.4145Z" fill="white"/>
<path opacity="0.38" fill-rule="evenodd" clip-rule="evenodd" d="M103.658 60.1365C104.718 61.6408 105.35 64.0391 105.72 66.3312C105.831 67.0085 106.231 67.9102 105.617 68.4981C104.743 68.6924 104.527 67.7264 104.276 67.0519C104.049 66.4416 103.835 65.6503 103.658 64.9884C103.279 63.5729 102.698 61.4829 102.936 60.4483C102.933 60.2693 103.014 60.1792 103.143 60.1365H103.658Z" fill="#2D9CDB"/>
<path opacity="0.38" fill-rule="evenodd" clip-rule="evenodd" d="M113.736 38.7061C113.565 39.3835 112.741 39.3003 112.293 39.4304C109.034 40.3621 105.982 42.4725 105.899 46.7588C105.813 51.3052 109.572 54.6584 114.149 54.1907C116.138 53.9873 117.636 52.987 118.686 51.8155C119.063 51.3967 119.371 50.4817 120.336 50.8872C121.127 52.4124 119.403 53.5853 118.377 54.2942C112.373 58.4428 103.605 53.9726 104.352 45.9325C104.693 42.2767 107.708 38.7152 111.468 38.2951C112.353 38.1945 113.22 38.2309 113.736 38.7061Z" fill="#2D9CDB"/>
<path fill-rule="evenodd" clip-rule="evenodd" d="M112.808 41.7007C113.743 41.5952 115.342 41.7329 116.211 42.2173C117.938 43.177 119.447 45.6963 118.788 48.2044C118.186 50.5041 114.336 53.4728 110.953 51.8154C109.963 51.3317 108.71 49.9225 108.374 48.6167C107.562 45.4474 109.517 42.6695 111.468 41.9076C111.849 41.758 112.298 41.758 112.808 41.7007Z" fill="white"/>
<path opacity="0.38" fill-rule="evenodd" clip-rule="evenodd" d="M112.912 42.4214C113.971 43.9271 114.602 46.324 114.974 48.6168C115.084 49.2948 115.486 50.1951 114.87 50.7837C113.997 50.9774 113.78 50.0127 113.53 49.3388C113.303 48.7286 113.089 47.9352 112.912 47.2746C112.533 45.8585 111.951 43.7691 112.189 42.7325C112.186 42.5563 112.267 42.4648 112.396 42.4214H112.912Z" fill="#2D9CDB"/>
<path opacity="0.38" fill-rule="evenodd" clip-rule="evenodd" d="M123.555 19.5644C123.384 20.2424 122.559 20.1592 122.111 20.2878C118.853 21.2217 115.801 23.3292 115.718 27.6156C115.632 32.1648 119.391 35.5186 123.967 35.0489C125.958 34.8455 127.456 33.8452 128.504 32.6751C128.882 32.2521 129.19 31.3399 130.153 31.7453C130.946 33.2699 129.222 34.4429 128.196 35.1537C122.191 39.3003 113.425 34.8315 114.171 26.7908C114.513 23.1335 117.529 19.5741 121.287 19.154C122.17 19.0534 123.038 19.0883 123.555 19.5644Z" fill="#2D9CDB"/>
<path fill-rule="evenodd" clip-rule="evenodd" d="M122.627 22.5596C123.562 22.4527 125.161 22.5911 126.029 23.0762C127.757 24.0359 129.267 26.5545 128.607 29.0626C128.005 31.3616 124.153 34.331 120.77 32.6751C119.781 32.1906 118.527 30.7814 118.193 29.475C117.381 26.307 119.337 23.5291 121.287 22.7665C121.667 22.6169 122.117 22.6169 122.627 22.5596Z" fill="white"/>
<path opacity="0.38" fill-rule="evenodd" clip-rule="evenodd" d="M122.73 23.2803C123.789 24.7846 124.421 27.1822 124.793 29.475C124.902 30.153 125.305 31.054 124.689 31.6419C123.816 31.8348 123.599 30.8688 123.349 30.197C123.121 29.5847 122.907 28.7927 122.73 28.1342C122.351 26.7173 121.769 24.6287 122.007 23.5913C122.004 23.4145 122.086 23.3236 122.215 23.2803H122.73Z" fill="#2D9CDB"/>
<path opacity="0.38" fill-rule="evenodd" clip-rule="evenodd" d="M67.8889 60.6901C67.7171 61.3661 66.8925 61.2857 66.4456 61.415C63.1861 62.3475 60.1339 64.4571 60.0516 68.7434C59.9657 73.2891 63.7252 76.6437 68.3009 76.1754C70.291 75.9719 71.7894 74.971 72.8382 73.8001C73.216 73.3786 73.5225 72.4657 74.4882 72.8726C75.2787 74.3964 73.5561 75.5686 72.5296 76.2767C66.5252 80.4268 57.7571 75.9552 58.5063 67.9172C58.847 64.2614 61.8607 60.6985 65.6203 60.2777C66.5042 60.1792 67.3722 60.2141 67.8889 60.6901Z" fill="#2D9CDB"/>
<path fill-rule="evenodd" clip-rule="evenodd" d="M66.9609 63.6854C67.8959 63.5784 69.4935 63.7182 70.3635 64.2013C72.0904 65.1617 73.5979 67.6803 72.9415 70.1876C72.3389 72.4874 68.4859 75.4582 65.1049 73.8001C64.1148 73.3164 62.8607 71.9051 62.5269 70.6007C61.7155 67.4321 63.6692 64.6535 65.6202 63.8923C66.0015 63.742 66.4505 63.742 66.9609 63.6854Z" fill="white"/>
<path opacity="0.38" fill-rule="evenodd" clip-rule="evenodd" d="M67.0635 64.4061C68.1228 65.9118 68.7547 68.308 69.127 70.6007C69.2366 71.2795 69.6388 72.1812 69.0236 72.7677C68.1487 72.9606 67.9322 71.9946 67.6822 71.3228C67.4539 70.7133 67.2409 69.9192 67.0635 69.258C66.6837 67.8431 66.1034 65.7524 66.3415 64.7164C66.3366 64.5403 66.419 64.4494 66.5482 64.4061H67.0635Z" fill="#2D9CDB"/>
<path opacity="0.38" fill-rule="evenodd" clip-rule="evenodd" d="M78.7847 42.7933C78.6136 43.4678 77.7882 43.386 77.3407 43.5154C74.0832 44.4478 71.0304 46.5575 70.948 50.8424C70.8614 55.3909 74.6216 58.7454 79.198 58.2757C81.1874 58.0723 82.6852 57.0713 83.7354 55.9026C84.1117 55.479 84.4196 54.5654 85.3833 54.9721C86.1751 56.4974 84.4518 57.6682 83.4253 58.3792C77.421 62.5271 68.6528 58.0548 69.4013 50.0169C69.7428 46.3611 72.7565 42.7989 76.5167 42.3788C77.4 42.2809 78.2693 42.3158 78.7847 42.7933Z" fill="#2D9CDB"/>
<path fill-rule="evenodd" clip-rule="evenodd" d="M77.8566 45.7858C78.7923 45.6781 80.3914 45.8179 81.26 46.3017C82.9855 47.2621 84.4958 49.7806 83.8373 52.2879C83.2347 54.5884 79.3831 57.5599 76 55.9026C75.0112 55.4167 73.7571 54.0076 73.4233 52.7011C72.6113 49.5352 74.5657 46.7546 76.5167 45.9919C76.8972 45.8424 77.3469 45.8438 77.8566 45.7858Z" fill="white"/>
<path opacity="0.38" fill-rule="evenodd" clip-rule="evenodd" d="M77.9593 46.5085C79.02 48.0121 79.6505 50.4097 80.0234 52.7011C80.133 53.3798 80.5346 54.2815 79.9194 54.8687C79.0445 55.063 78.8294 54.0977 78.5794 53.4232C78.3518 52.8136 78.1367 52.0209 77.9593 51.3597C77.5816 49.9435 76.9999 47.8534 77.238 46.8181C77.2338 46.6413 77.3155 46.5504 77.4454 46.5085H77.9593Z" fill="#2D9CDB"/>
<path opacity="0.38" fill-rule="evenodd" clip-rule="evenodd" d="M88.0388 25.0782C87.8664 25.7535 87.0424 25.6724 86.5955 25.8003C83.3367 26.7349 80.2839 28.8431 80.2021 33.1287C80.1156 37.6772 83.875 41.0297 88.4508 40.5621C90.4408 40.3566 91.9386 39.3577 92.9881 38.1869C93.3652 37.766 93.6732 36.8517 94.6374 37.2578C95.4279 38.7838 93.7053 39.9539 92.6788 40.6641C86.6744 44.8141 77.9063 40.3419 78.6562 32.3039C78.9962 28.6467 82.0099 25.0866 85.7694 24.6644C86.6535 24.5665 87.5221 24.6008 88.0388 25.0782Z" fill="#2D9CDB"/>
<path fill-rule="evenodd" clip-rule="evenodd" d="M87.1101 28.0728C88.0451 27.9651 89.6441 28.1042 90.5127 28.5865C92.2402 29.547 93.7485 32.0676 93.0907 34.5743C92.4875 36.8726 88.6358 39.8442 85.2541 38.1868C84.264 37.7024 83.0112 36.2931 82.6768 34.9874C81.8654 31.8195 83.8184 29.0416 85.7694 28.2776C86.1506 28.1287 86.6004 28.1287 87.1101 28.0728Z" fill="white"/>
<path opacity="0.38" fill-rule="evenodd" clip-rule="evenodd" d="M87.2127 28.7927C88.2734 30.297 88.9033 32.6946 89.2761 34.9874C89.3858 35.6647 89.788 36.5672 89.1728 37.1557C88.2979 37.348 88.0821 36.3826 87.8328 35.7095C87.6051 35.0985 87.3908 34.3052 87.2127 33.6453C86.8336 32.2291 86.2526 30.1398 86.4914 29.1052C86.4872 28.9284 86.5682 28.8347 86.6988 28.7927H87.2127Z" fill="#2D9CDB"/>
<path opacity="0.38" fill-rule="evenodd" clip-rule="evenodd" d="M97.8564 5.93644C97.6854 6.61307 96.8607 6.53126 96.4131 6.65924C93.1564 7.59306 90.1022 9.70135 90.0219 13.9876C89.9332 18.534 93.6934 21.8886 98.2691 21.4189C100.259 21.2162 101.756 20.2166 102.806 19.0457C103.185 18.625 103.492 17.7106 104.456 18.1167C105.248 19.6419 103.524 20.8128 102.498 21.5223C96.4934 25.6724 87.7253 21.2008 88.4738 13.1621C88.8145 9.50422 91.829 5.9441 95.5898 5.524C96.4725 5.42544 97.3411 5.45972 97.8564 5.93644Z" fill="#2D9CDB"/>
<path fill-rule="evenodd" clip-rule="evenodd" d="M96.9285 8.92961C97.8634 8.82339 99.4632 8.96182 100.332 9.4462C102.059 10.4059 103.567 12.9245 102.911 15.4333C102.307 17.7316 98.4555 20.7024 95.0738 19.0457C94.083 18.5621 92.8296 17.1507 92.4959 15.8443C91.6845 12.6791 93.6375 9.89987 95.5898 9.13655C95.9697 8.98766 96.4187 8.98766 96.9285 8.92961Z" fill="white"/>
<path opacity="0.38" fill-rule="evenodd" clip-rule="evenodd" d="M97.0325 9.6524C98.0917 11.1553 98.723 13.5543 99.0952 15.8443C99.2041 16.5223 99.6063 17.4254 98.9925 18.014C98.1169 18.2062 97.9011 17.2409 97.6519 16.5671C97.4236 15.9561 97.2098 15.1655 97.0325 14.5035C96.6526 13.0888 96.071 10.998 96.3105 9.96134C96.3063 9.78518 96.388 9.69435 96.5179 9.6524H97.0325Z" fill="#2D9CDB"/>
<path fill-rule="evenodd" clip-rule="evenodd" d="M24.9636 52.0357C24.5056 51.7009 23.4567 51.027 22.7759 50.393C20.7055 48.4645 19.1568 44.9988 22.3214 43.2456C23.4714 42.6095 25.3463 42.6871 26.717 43.1555C28.6204 43.8062 31.4289 45.4971 33.7625 47.1832C36.1317 48.8978 39.1419 51.171 39.8946 52.9325C40.6656 54.7409 40.174 57.3349 37.7642 58.3527C35.5744 59.2775 33.1647 57.5998 30.5023 55.904C28.5457 54.657 26.842 53.403 24.9636 52.0357Z" fill="#2F80ED"/>
<path d="M22.7759 50.393C23.4567 51.027 24.5056 51.7009 24.9636 52.0357C25.9523 52.755 26.8915 53.4428 27.8454 54.1153C27.6687 51.2919 28.3746 47.6095 32.935 46.6009C30.7906 45.1204 28.3998 43.73 26.717 43.1555C25.3463 42.6871 23.4714 42.6095 22.3214 43.2456C19.1568 44.9988 20.7055 48.4645 22.7759 50.393Z" fill="#E0ECFC"/>
<path d="M47.7397 14.7294C46.9018 16.8978 46.1958 19.1171 45.9033 21.73C45.6107 24.3359 46.5345 26.3764 48.2704 26.9265C50.1907 27.5339 51.9635 25.8619 53.0054 24.5561C54.4089 22.796 55.4458 20.2781 56.3124 17.7638C54.0213 13.9088 50.1138 14.1373 47.7397 14.7294Z" fill="#E0ECFC"/>
<path d="M54.9179 4.22811C54.6246 4.26727 54.0304 4.36161 53.7343 4.5014C51.3797 5.62333 49.8771 9.5077 48.8172 12.0689C48.4471 12.9622 48.084 13.8423 47.7397 14.7294C50.1138 14.1373 54.0213 13.9087 56.3123 17.7638C56.6593 16.76 56.9799 15.7562 57.2844 14.8035C57.8646 12.9951 58.6019 11.1036 58.7423 9.24215C58.9915 5.94765 57.5427 3.88275 54.9179 4.22811Z" fill="#2F80ED"/>
<path fill-rule="evenodd" clip-rule="evenodd" d="M109.723 78.3703C109.262 78.7016 108.208 79.3706 107.527 79.9982C105.444 81.915 103.875 85.3702 107.027 87.1436C108.173 87.7881 110.05 87.721 111.422 87.2596C113.329 86.6207 116.149 84.9473 118.492 83.2738C120.872 81.5759 123.895 79.3195 124.659 77.5615C125.441 75.7601 124.965 73.162 122.56 72.1316C120.378 71.1921 117.957 72.855 115.284 74.5355C113.32 75.7692 111.609 77.0128 109.723 78.3703Z" fill="#2F80ED"/>
<path d="M107.527 79.9982C108.208 79.3706 109.262 78.7016 109.723 78.3703C110.715 77.6566 111.66 76.9743 112.616 76.3096C112.422 79.1287 113.107 82.8174 117.661 83.8526C115.509 85.3191 113.109 86.6948 111.422 87.2597C110.05 87.721 108.173 87.7881 107.027 87.1436C103.875 85.3702 105.444 81.915 107.527 79.9982Z" fill="#E0ECFC"/>
<path d="M97.4877 98.6284C99.424 99.9139 101.279 101.318 103.026 103.281C104.767 105.24 105.192 107.438 104.091 108.893C102.875 110.499 100.464 110.159 98.8598 109.695C96.6987 109.07 94.3993 107.612 92.2402 106.063C91.8855 101.59 95.2086 99.5176 97.4877 98.6284Z" fill="#E0ECFC"/>
<path d="M85.5697 94.205C85.8316 94.0659 86.3713 93.801 86.6946 93.7451C89.2628 93.2991 92.7304 95.6017 95.0724 97.0786C95.8901 97.5939 96.6959 98.1027 97.4877 98.6284C95.2086 99.5175 91.8856 101.59 92.2402 106.063C91.3772 105.442 90.5379 104.808 89.737 104.207C88.2224 103.066 86.5298 101.949 85.3406 100.511C83.2361 97.9657 83.227 95.4409 85.5697 94.205Z" fill="#2F80ED"/>
<path fill-rule="evenodd" clip-rule="evenodd" d="M49.0656 61.9344C50.1312 63.6093 50.7981 65.1744 52.4355 65.9454C54.7181 67.0205 58.604 66.2984 60.7204 67.4958C62.2747 68.373 63.4548 70.6386 64.5455 72.5091C65.6935 74.4754 66.7703 76.3761 67.7325 78.16C69.844 82.0821 72.0219 85.905 74.1069 89.4658C75.2786 91.465 76.1088 93.4607 77.0208 95.3892C78.9033 99.3666 80.5457 103.312 82.3011 107.787C83.1593 109.969 84.5181 113.605 83.5768 116.172C82.6006 118.838 79.0144 120.568 76.2918 121.916C68.6576 125.696 62.0597 128.965 54.1651 132.398C52.0898 133.3 49.4651 134.404 46.9715 133.402C46.0261 133.022 44.6631 131.756 43.8747 130.758C42.7268 129.302 41.8379 127.422 40.8701 125.654C37.0967 118.748 33.6395 111.611 29.7599 104.323C27.8753 100.781 26.2861 97.222 24.569 93.2915C23.6026 91.0763 22.7298 88.7465 23.2039 86.2727C23.537 84.5399 24.6424 83.0404 25.5725 81.7165C26.4872 80.41 27.7454 78.8702 27.8488 77.066C27.9493 75.31 27.2078 74.0959 26.7553 72.6923C32.0915 69.8941 37.6979 67.321 43.2379 64.5774C45.1407 63.6365 47.253 62.5384 49.0656 61.9344Z" fill="#2F80ED"/>
<path d="M56.7145 118.543C58.8184 117.541 61.0465 116.423 62.5415 114.897C63.0205 114.408 63.6971 113.455 63.908 112.891C64.6063 111.021 63.8885 108.755 63.2698 106.966C62.7971 105.597 62.2007 104.269 61.7224 103.137C59.444 97.7414 57.4798 93.5949 55.1664 88.3698C53.9305 85.5793 52.2085 82.0304 48.5196 82.0807C45.9094 82.1171 43.4648 83.5214 41.3253 84.3588C39.0643 85.2452 36.869 86.1245 34.5871 87.1842C31.5747 88.585 27.9947 90.2117 25.2072 92.1067C24.9363 92.2913 24.6298 92.4968 24.3225 92.7127C24.4035 92.9078 24.4859 93.1007 24.569 93.2915C26.286 97.222 27.8753 100.781 29.7599 104.323C33.6395 111.611 37.0967 118.748 40.8701 125.654C40.9434 125.785 41.0139 125.921 41.0859 126.054C44.1778 124.576 47.4966 122.76 50.2499 121.46C52.4822 120.406 54.5401 119.58 56.7145 118.543Z" fill="#E0ECFC"/>
<path fill-rule="evenodd" clip-rule="evenodd" d="M40.9958 94.8671C42.1444 94.5588 44.0856 93.3747 45.818 93.2699C47.0505 93.1972 48.5965 96.8893 48.3325 98.5936C48.1893 99.5225 45.4151 100.373 44.0625 101.335C44.5611 102.625 45.9835 104.855 45.2671 105.499C44.2574 106.408 42.3169 107.312 41.435 107.473C40.5524 107.632 39.4862 104.915 38.5882 103.636C37.2803 104.332 35.5263 105.591 34.2079 104.952C33.4964 104.609 32.2199 102.247 32.0174 101.225C31.6362 99.3009 34.1346 98.3727 35.5213 97.4989C35.1876 96.3371 34.3902 95.6577 34.5354 94.3191C34.6702 93.0874 36.6854 91.718 38.1489 91.5789C40.1188 91.3944 40.3408 93.5075 40.9958 94.8671Z" fill="white"/>
<path fill-rule="evenodd" clip-rule="evenodd" d="M53.406 106.241C50.3727 107.595 45.9492 109.775 42.7819 111.369C41.9824 111.771 40.8023 112.322 40.0992 112.923C40.5635 113.754 41.0118 114.596 41.4643 115.427C42.6876 115.367 44.3712 114.036 45.274 113.551C48.0762 112.043 50.7059 110.835 53.214 109.497C53.6679 109.256 54.1846 109.014 54.6601 108.724C54.2384 107.901 53.8215 107.071 53.406 106.241Z" fill="#2F80ED"/>
<path fill-rule="evenodd" clip-rule="evenodd" d="M57.0043 112.974C56.6698 112.426 56.3534 111.872 56.0427 111.316C54.8201 111.632 53.6707 112.609 52.7469 113.084C50.5871 114.193 47.417 115.77 45.274 116.825C44.6805 117.116 43.675 117.507 42.9055 117.947C42.9272 117.982 42.9488 118.018 42.9697 118.053C43.3726 118.704 43.7741 119.356 44.177 120.009C44.4179 119.882 44.6749 119.748 44.9612 119.63C48.632 118.12 51.3859 116.451 54.7712 114.643C55.3514 114.331 56.4309 113.854 57.192 113.285C57.1299 113.182 57.067 113.076 57.0043 112.974Z" fill="#2F80ED"/>
<path fill-rule="evenodd" clip-rule="evenodd" d="M49.3163 56.7401C48.8338 55.858 48.5238 55.1149 47.9289 54.1977C47.3758 53.3422 46.4227 52.1874 45.5213 51.7953C44.3586 51.2906 42.9495 51.7261 41.6193 52.265C39.0567 53.3065 30.3116 57.985 30.3095 57.9878C27.9968 59.0615 25.8357 60.0729 23.6501 61.3445C22.4107 62.0631 21.299 62.8844 20.8898 64.1419C20.1525 66.4165 21.9149 69.5048 22.3164 70.4268C23.1369 72.312 24.1905 74.834 27.1617 74.5062C28.3348 74.3761 29.6014 73.7261 30.7264 73.1745C32.6934 72.2085 44.6742 66.0691 46.6287 65.11C47.7529 64.5592 49.0412 63.9553 49.8638 63.1046C51.9418 60.9558 50.3023 58.5422 49.3163 56.7401Z" fill="#2D9CDB"/>
</svg>
