<svg width="15" height="16" viewBox="0 0 15 16" fill="none" xmlns="http://www.w3.org/2000/svg">
<path d="M14.9998 8.00031C14.9998 7.72531 14.752 7.50031 14.444 7.50031H1.81152L6.52245 2.83468C6.7286 2.63059 6.71179 2.31406 6.48502 2.12875C6.37815 2.04406 6.24422 2.00031 6.11029 2.00031C5.95945 2.00031 5.80865 2.055 5.69913 2.16437L0.144442 7.66437C-0.0481473 7.85481 -0.0481473 8.14593 0.144442 8.33625L5.69913 13.8362C5.90638 14.0413 6.25794 14.055 6.48428 13.8704C6.71106 13.6849 6.72787 13.3686 6.52172 13.1645L1.81152 8.50031H14.4443C14.752 8.50031 14.9998 8.27531 14.9998 8.00031Z" fill="#EB5757"/>
</svg>
