<svg width="32" height="32" viewBox="0 0 32 32" fill="none" xmlns="http://www.w3.org/2000/svg">
<g clip-path="url(#clip0_3_405)">
<path d="M25.008 10.7307C25.2653 10.9933 25.2627 11.416 25 11.6747L17.9 18.6667C16.9853 19.5613 15.8093 20.0093 14.6333 20.0093C13.4693 20.0093 12.304 19.5707 11.3933 18.692L8.332 15.6733C8.07067 15.4147 8.068 14.9933 8.32533 14.7307C8.58667 14.468 9.008 14.4653 9.26933 14.724L12.3253 17.7373C13.624 18.992 15.6653 18.9867 16.9653 17.7133L24.064 10.7227C24.324 10.4653 24.748 10.468 25.0067 10.7293L25.008 10.7307ZM32 16C32 24.8227 24.8227 32 16 32C7.17733 32 0 24.8227 0 16C0 7.17733 7.17733 0 16 0C24.8227 0 32 7.17733 32 16ZM30.6667 16C30.6667 7.91333 24.0867 1.33333 16 1.33333C7.91333 1.33333 1.33333 7.91333 1.33333 16C1.33333 24.0867 7.91333 30.6667 16 30.6667C24.0867 30.6667 30.6667 24.0867 30.6667 16Z" fill="#2D9CDB"/>
</g>
<defs>
<clipPath id="clip0_3_405">
<rect width="32" height="32" fill="white"/>
</clipPath>
</defs>
</svg>
