<svg width="54" height="49" viewBox="0 0 54 49" fill="none" xmlns="http://www.w3.org/2000/svg">
<g clip-path="url(#clip0_11_2168)">
<path d="M2.46563 10.2437L2.94062 9.76875C3.88438 8.825 5.5 9.49375 5.5 10.8281V11.5C5.5 11.775 5.725 12 6 12C6.275 12 6.5 11.775 6.5 11.5V10.8281C6.5 9.49063 8.11562 8.82188 9.05937 9.76875L9.53438 10.2437C9.72813 10.4375 10.0469 10.4375 10.2406 10.2437C10.4344 10.05 10.4344 9.73125 10.2406 9.5375L9.76562 9.0625C8.82187 8.11875 9.49062 6.50313 10.825 6.50313H11.5C11.775 6.50313 12 6.27813 12 6.00313C12 5.72813 11.775 5.50313 11.5 5.50313H10.8281C9.49063 5.50313 8.82188 3.8875 9.76875 2.94375L10.2437 2.46875C10.4375 2.275 10.4375 1.95625 10.2437 1.7625C10.05 1.56875 9.73125 1.56875 9.5375 1.7625L9.05937 2.23125C8.11562 3.17812 6.5 2.50938 6.5 1.17188V0.5C6.5 0.225 6.275 0 6 0C5.725 0 5.5 0.225 5.5 0.5V1.17188C5.5 2.50938 3.88438 3.17812 2.94062 2.23125L2.46563 1.75625C2.27188 1.5625 1.95312 1.55938 1.75937 1.75625C1.56562 1.95312 1.56562 2.26875 1.75937 2.4625L2.23125 2.94062C3.175 3.88438 2.50625 5.5 1.17188 5.5H0.5C0.225 5.5 0 5.725 0 6C0 6.275 0.225 6.5 0.5 6.5H1.17188C2.50938 6.5 3.17812 8.11562 2.23125 9.05937L1.75625 9.53438C1.5625 9.72813 1.55938 10.0469 1.75625 10.2406C1.95312 10.4344 2.26875 10.4344 2.4625 10.2406L2.46563 10.2437ZM2.68438 6C3.39687 5.45625 3.775 4.54375 3.65625 3.65625C4.54688 3.775 5.45625 3.39687 6 2.68438C6.2625 3.02813 6.60938 3.29375 7 3.4625C7.41875 3.64375 7.88438 3.71563 8.34375 3.65313C8.225 4.54375 8.60313 5.45312 9.31563 5.99687C8.60313 6.54062 8.225 7.45312 8.34375 8.34062C7.45312 8.22188 6.54375 8.6 6 9.3125C5.45625 8.6 4.54375 8.22188 3.65625 8.34062C3.775 7.45 3.39687 6.54062 2.68438 5.99687V6ZM5.25 6C5.44891 6 5.63968 5.92098 5.78033 5.78033C5.92098 5.63968 6 5.44891 6 5.25C6 5.05109 5.92098 4.86032 5.78033 4.71967C5.63968 4.57902 5.44891 4.5 5.25 4.5C5.05109 4.5 4.86032 4.57902 4.71967 4.71967C4.57902 4.86032 4.5 5.05109 4.5 5.25C4.5 5.44891 4.57902 5.63968 4.71967 5.78033C4.86032 5.92098 5.05109 6 5.25 6ZM7.5 7C7.5 6.86739 7.44732 6.74021 7.35355 6.64645C7.25979 6.55268 7.13261 6.5 7 6.5C6.86739 6.5 6.74021 6.55268 6.64645 6.64645C6.55268 6.74021 6.5 6.86739 6.5 7C6.5 7.13261 6.55268 7.25979 6.64645 7.35355C6.74021 7.44732 6.86739 7.5 7 7.5C7.13261 7.5 7.25979 7.44732 7.35355 7.35355C7.44732 7.25979 7.5 7.13261 7.5 7Z" fill="#2D9CDB"/>
</g>
<g clip-path="url(#clip1_11_2168)">
<path d="M44.4656 47.2437L44.9406 46.7688C45.8844 45.825 47.5 46.4937 47.5 47.8281V48.5C47.5 48.775 47.725 49 48 49C48.275 49 48.5 48.775 48.5 48.5V47.8281C48.5 46.4906 50.1156 45.8219 51.0594 46.7688L51.5344 47.2437C51.7281 47.4375 52.0469 47.4375 52.2406 47.2437C52.4344 47.05 52.4344 46.7313 52.2406 46.5375L51.7656 46.0625C50.8219 45.1187 51.4906 43.5031 52.825 43.5031H53.5C53.775 43.5031 54 43.2781 54 43.0031C54 42.7281 53.775 42.5031 53.5 42.5031H52.8281C51.4906 42.5031 50.8219 40.8875 51.7688 39.9437L52.2437 39.4688C52.4375 39.275 52.4375 38.9563 52.2437 38.7625C52.05 38.5688 51.7313 38.5688 51.5375 38.7625L51.0594 39.2313C50.1156 40.1781 48.5 39.5094 48.5 38.1719V37.5C48.5 37.225 48.275 37 48 37C47.725 37 47.5 37.225 47.5 37.5V38.1719C47.5 39.5094 45.8844 40.1781 44.9406 39.2313L44.4656 38.7563C44.2719 38.5625 43.9531 38.5594 43.7594 38.7563C43.5656 38.9531 43.5656 39.2688 43.7594 39.4625L44.2313 39.9406C45.175 40.8844 44.5062 42.5 43.1719 42.5H42.5C42.225 42.5 42 42.725 42 43C42 43.275 42.225 43.5 42.5 43.5H43.1719C44.5094 43.5 45.1781 45.1156 44.2313 46.0594L43.7563 46.5344C43.5625 46.7281 43.5594 47.0469 43.7563 47.2406C43.9531 47.4344 44.2688 47.4344 44.4625 47.2406L44.4656 47.2437ZM44.6844 43C45.3969 42.4563 45.775 41.5437 45.6562 40.6562C46.5469 40.775 47.4563 40.3969 48 39.6844C48.2625 40.0281 48.6094 40.2938 49 40.4625C49.4187 40.6438 49.8844 40.7156 50.3438 40.6531C50.225 41.5437 50.6031 42.4531 51.3156 42.9969C50.6031 43.5406 50.225 44.4531 50.3438 45.3406C49.4531 45.2219 48.5437 45.6 48 46.3125C47.4563 45.6 46.5437 45.2219 45.6562 45.3406C45.775 44.45 45.3969 43.5406 44.6844 42.9969V43ZM47.25 43C47.4489 43 47.6397 42.921 47.7803 42.7803C47.921 42.6397 48 42.4489 48 42.25C48 42.0511 47.921 41.8603 47.7803 41.7197C47.6397 41.579 47.4489 41.5 47.25 41.5C47.0511 41.5 46.8603 41.579 46.7197 41.7197C46.579 41.8603 46.5 42.0511 46.5 42.25C46.5 42.4489 46.579 42.6397 46.7197 42.7803C46.8603 42.921 47.0511 43 47.25 43ZM49.5 44C49.5 43.8674 49.4473 43.7402 49.3536 43.6464C49.2598 43.5527 49.1326 43.5 49 43.5C48.8674 43.5 48.7402 43.5527 48.6464 43.6464C48.5527 43.7402 48.5 43.8674 48.5 44C48.5 44.1326 48.5527 44.2598 48.6464 44.3536C48.7402 44.4473 48.8674 44.5 49 44.5C49.1326 44.5 49.2598 44.4473 49.3536 44.3536C49.4473 44.2598 49.5 44.1326 49.5 44Z" fill="#2D9CDB"/>
</g>
<g clip-path="url(#clip2_11_2168)">
<path d="M15.375 35.5C18.0603 35.5 20.6356 34.4333 22.5345 32.5345C24.4333 30.6356 25.5 28.0603 25.5 25.375C25.5 22.6897 24.4333 20.1143 22.5345 18.2155C20.6356 16.3167 18.0603 15.25 15.375 15.25C12.6897 15.25 10.1143 16.3167 8.21554 18.2155C6.31674 20.1143 5.25 22.6897 5.25 25.375C5.25 28.0603 6.31674 30.6356 8.21554 32.5345C10.1143 34.4333 12.6897 35.5 15.375 35.5ZM27.75 25.375C27.75 31.8297 22.807 37.1312 16.5 37.7008V42.25H21C21.6187 42.25 22.125 42.7563 22.125 43.375C22.125 43.9937 21.6187 44.5 21 44.5H16.5V47.875C16.5 48.4938 15.9937 49 15.375 49C14.7563 49 14.25 48.4938 14.25 47.875V44.5H9.75C9.13125 44.5 8.625 43.9937 8.625 43.375C8.625 42.7563 9.13125 42.25 9.75 42.25H14.25V37.7008C7.94297 37.1312 3 31.8297 3 25.375C3 18.5406 8.54063 13 15.375 13C22.2094 13 27.75 18.5406 27.75 25.375ZM22.118 38.3547C22.8 37.9961 23.4539 37.5883 24.0727 37.1313C25.8938 38.9102 28.3828 40 31.125 40C36.7148 40 41.25 35.4648 41.25 29.875C41.25 24.2852 36.7148 19.75 31.125 19.75C30.3867 19.75 29.6695 19.8273 28.9734 19.982C28.6852 19.2648 28.3477 18.5687 27.9539 17.9148C28.9664 17.6406 30.0281 17.5 31.125 17.5C34.1344 17.5 36.8977 18.5758 39.0422 20.3617L44.1609 15.25H37.875C37.2562 15.25 36.75 14.7437 36.75 14.125C36.75 13.5062 37.2562 13 37.875 13H46.875C47.4938 13 48 13.5062 48 14.125V23.125C48 23.7437 47.4938 24.25 46.875 24.25C46.2562 24.25 45.75 23.7437 45.75 23.125V16.8391L40.6383 21.9508C42.4242 24.1023 43.5 26.8656 43.5 29.875C43.5 36.7094 37.9594 42.25 31.125 42.25C27.5742 42.25 24.375 40.7523 22.118 38.3547Z" fill="#2D9CDB"/>
</g>
<defs>
<clipPath id="clip0_11_2168">
<rect width="12" height="12" fill="white"/>
</clipPath>
<clipPath id="clip1_11_2168">
<rect width="12" height="12" fill="white" transform="translate(42 37)"/>
</clipPath>
<clipPath id="clip2_11_2168">
<rect width="45" height="36" fill="white" transform="translate(3 13)"/>
</clipPath>
</defs>
</svg>
