<svg width="102" height="16" viewBox="0 0 102 16" fill="none" xmlns="http://www.w3.org/2000/svg">
<g clip-path="url(#clip0_12_2209)">
<path d="M9.90312 0.5625C9.7375 0.21875 9.3875 0 9.00313 0C8.61875 0 8.27187 0.21875 8.10312 0.5625L6.09375 4.69688L1.60625 5.35938C1.23125 5.41563 0.91875 5.67812 0.803125 6.0375C0.6875 6.39687 0.78125 6.79375 1.05 7.05937L4.30625 10.2812L3.5375 14.8344C3.475 15.2094 3.63125 15.5906 3.94062 15.8125C4.25 16.0344 4.65937 16.0625 4.99687 15.8844L9.00625 13.7437L13.0156 15.8844C13.3531 16.0625 13.7625 16.0375 14.0719 15.8125C14.3812 15.5875 14.5375 15.2094 14.475 14.8344L13.7031 10.2812L16.9594 7.05937C17.2281 6.79375 17.325 6.39687 17.2062 6.0375C17.0875 5.67812 16.7781 5.41563 16.4031 5.35938L11.9125 4.69688L9.90312 0.5625Z" fill="#F2994A"/>
</g>
<g clip-path="url(#clip1_12_2209)">
<path d="M30.9031 0.5625C30.7375 0.21875 30.3875 0 30.0031 0C29.6188 0 29.2719 0.21875 29.1031 0.5625L27.0938 4.69688L22.6063 5.35938C22.2313 5.41563 21.9188 5.67812 21.8031 6.0375C21.6875 6.39687 21.7812 6.79375 22.05 7.05937L25.3063 10.2812L24.5375 14.8344C24.475 15.2094 24.6312 15.5906 24.9406 15.8125C25.25 16.0344 25.6594 16.0625 25.9969 15.8844L30.0063 13.7437L34.0156 15.8844C34.3531 16.0625 34.7625 16.0375 35.0719 15.8125C35.3812 15.5875 35.5375 15.2094 35.475 14.8344L34.7031 10.2812L37.9594 7.05937C38.2281 6.79375 38.325 6.39687 38.2062 6.0375C38.0875 5.67812 37.7781 5.41563 37.4031 5.35938L32.9125 4.69688L30.9031 0.5625Z" fill="#F2994A"/>
</g>
<g clip-path="url(#clip2_12_2209)">
<path d="M51.9031 0.5625C51.7375 0.21875 51.3875 0 51.0031 0C50.6188 0 50.2719 0.21875 50.1031 0.5625L48.0938 4.69688L43.6063 5.35938C43.2313 5.41563 42.9188 5.67812 42.8031 6.0375C42.6875 6.39687 42.7812 6.79375 43.05 7.05937L46.3063 10.2812L45.5375 14.8344C45.475 15.2094 45.6312 15.5906 45.9406 15.8125C46.25 16.0344 46.6594 16.0625 46.9969 15.8844L51.0063 13.7437L55.0156 15.8844C55.3531 16.0625 55.7625 16.0375 56.0719 15.8125C56.3812 15.5875 56.5375 15.2094 56.475 14.8344L55.7031 10.2812L58.9594 7.05937C59.2281 6.79375 59.325 6.39687 59.2062 6.0375C59.0875 5.67812 58.7781 5.41563 58.4031 5.35938L53.9125 4.69688L51.9031 0.5625Z" fill="#F2994A"/>
</g>
<g clip-path="url(#clip3_12_2209)">
<path d="M72.9031 0.5625C72.7375 0.21875 72.3875 0 72.0031 0C71.6188 0 71.2719 0.21875 71.1031 0.5625L69.0938 4.69688L64.6063 5.35938C64.2313 5.41563 63.9188 5.67812 63.8031 6.0375C63.6875 6.39687 63.7812 6.79375 64.05 7.05937L67.3063 10.2812L66.5375 14.8344C66.475 15.2094 66.6312 15.5906 66.9406 15.8125C67.25 16.0344 67.6594 16.0625 67.9969 15.8844L72.0063 13.7437L76.0156 15.8844C76.3531 16.0625 76.7625 16.0375 77.0719 15.8125C77.3812 15.5875 77.5375 15.2094 77.475 14.8344L76.7031 10.2812L79.9594 7.05937C80.2281 6.79375 80.325 6.39687 80.2062 6.0375C80.0875 5.67812 79.7781 5.41563 79.4031 5.35938L74.9125 4.69688L72.9031 0.5625Z" fill="#F2994A"/>
</g>
<g clip-path="url(#clip4_12_2209)">
<path d="M93.9031 0.5625C93.7375 0.21875 93.3875 0 93.0031 0C92.6188 0 92.2719 0.21875 92.1031 0.5625L90.0938 4.69688L85.6063 5.35938C85.2313 5.41563 84.9188 5.67812 84.8031 6.0375C84.6875 6.39687 84.7812 6.79375 85.05 7.05937L88.3063 10.2812L87.5375 14.8344C87.475 15.2094 87.6312 15.5906 87.9406 15.8125C88.25 16.0344 88.6594 16.0625 88.9969 15.8844L93.0063 13.7437L97.0156 15.8844C97.3531 16.0625 97.7625 16.0375 98.0719 15.8125C98.3812 15.5875 98.5375 15.2094 98.475 14.8344L97.7031 10.2812L100.959 7.05937C101.228 6.79375 101.325 6.39687 101.206 6.0375C101.087 5.67812 100.778 5.41563 100.403 5.35938L95.9125 4.69688L93.9031 0.5625Z" fill="#F2994A"/>
</g>
<defs>
<clipPath id="clip0_12_2209">
<rect width="18" height="16" fill="white"/>
</clipPath>
<clipPath id="clip1_12_2209">
<rect width="18" height="16" fill="white" transform="translate(21)"/>
</clipPath>
<clipPath id="clip2_12_2209">
<rect width="18" height="16" fill="white" transform="translate(42)"/>
</clipPath>
<clipPath id="clip3_12_2209">
<rect width="18" height="16" fill="white" transform="translate(63)"/>
</clipPath>
<clipPath id="clip4_12_2209">
<rect width="18" height="16" fill="white" transform="translate(84)"/>
</clipPath>
</defs>
</svg>
