<svg width="36" height="36" viewBox="0 0 36 36" fill="none" xmlns="http://www.w3.org/2000/svg">
<g clip-path="url(#clip0_10_2150)">
<path d="M14.8148 2.72812C15.3281 1.14609 16.8117 0 18.5625 0C20.3133 0 21.7969 1.14609 22.3102 2.72812C22.8656 2.42578 23.5055 2.25 24.1875 2.25C26.3602 2.25 28.125 4.01484 28.125 6.1875V7.12969C28.6383 6.88359 29.2078 6.75 29.8125 6.75C31.9852 6.75 33.75 8.51484 33.75 10.6875V23.625C33.75 30.4594 28.2094 36 21.375 36H20.7773C16.1508 36 11.7141 34.1648 8.44453 30.8953L1.15313 23.5969C-0.386716 22.057 -0.386716 19.568 1.15313 18.0281C2.69297 16.4883 5.18203 16.4883 6.72188 18.0281L9 20.3062V6.1875C9 4.01484 10.7648 2.25 12.9375 2.25C13.6195 2.25 14.2594 2.42578 14.8148 2.72812ZM14.625 6.1875C14.625 5.25234 13.8727 4.5 12.9375 4.5C12.0023 4.5 11.25 5.25234 11.25 6.1875V23.0203C11.25 23.4773 10.9758 23.8852 10.5539 24.0609C10.132 24.2367 9.64688 24.1383 9.33047 23.8148L5.13282 19.6172C4.47188 18.9562 3.40313 18.9562 2.74922 19.6172C2.09532 20.2781 2.08828 21.3469 2.74922 22.0008L10.0406 29.2992C12.8883 32.1469 16.7484 33.75 20.7773 33.75H21.375C26.9648 33.75 31.5 29.2148 31.5 23.625V10.6875C31.5 9.75234 30.7477 9 29.8125 9C28.8844 9 28.125 9.75234 28.125 10.6805V16.875C28.125 17.4937 27.6188 18 27 18C26.3813 18 25.875 17.4937 25.875 16.875V10.6945V10.6875V6.1875C25.875 5.25234 25.1227 4.5 24.1875 4.5C23.2594 4.5 22.5 5.25234 22.5 6.18047V16.875C22.5 17.4937 21.9938 18 21.375 18C20.7563 18 20.25 17.4937 20.25 16.875V6.19453V6.1875V3.9375C20.25 3.00234 19.4977 2.25 18.5625 2.25C17.6273 2.25 16.875 3.00234 16.875 3.9375V5.61797V5.625V16.875C16.875 17.4937 16.3688 18 15.75 18C15.1313 18 14.625 17.4937 14.625 16.875V6.19453V6.1875ZM16.875 22.5C16.875 22.2016 16.9935 21.9155 17.2045 21.7045C17.4155 21.4935 17.7016 21.375 18 21.375C18.2984 21.375 18.5845 21.4935 18.7955 21.7045C19.0065 21.9155 19.125 22.2016 19.125 22.5C19.125 22.7984 19.0065 23.0845 18.7955 23.2955C18.5845 23.5065 18.2984 23.625 18 23.625C17.7016 23.625 17.4155 23.5065 17.2045 23.2955C16.9935 23.0845 16.875 22.7984 16.875 22.5ZM20.25 25.875C20.25 25.5766 20.3685 25.2905 20.5795 25.0795C20.7905 24.8685 21.0766 24.75 21.375 24.75C21.6734 24.75 21.9595 24.8685 22.1705 25.0795C22.3815 25.2905 22.5 25.5766 22.5 25.875C22.5 26.1734 22.3815 26.4595 22.1705 26.6705C21.9595 26.8815 21.6734 27 21.375 27C21.0766 27 20.7905 26.8815 20.5795 26.6705C20.3685 26.4595 20.25 26.1734 20.25 25.875ZM25.875 21.375C26.1734 21.375 26.4595 21.4935 26.6705 21.7045C26.8815 21.9155 27 22.2016 27 22.5C27 22.7984 26.8815 23.0845 26.6705 23.2955C26.4595 23.5065 26.1734 23.625 25.875 23.625C25.5766 23.625 25.2905 23.5065 25.0795 23.2955C24.8685 23.0845 24.75 22.7984 24.75 22.5C24.75 22.2016 24.8685 21.9155 25.0795 21.7045C25.2905 21.4935 25.5766 21.375 25.875 21.375ZM22.5 29.25C22.5 28.9516 22.6185 28.6655 22.8295 28.4545C23.0405 28.2435 23.3266 28.125 23.625 28.125C23.9234 28.125 24.2095 28.2435 24.4205 28.4545C24.6315 28.6655 24.75 28.9516 24.75 29.25C24.75 29.5484 24.6315 29.8345 24.4205 30.0455C24.2095 30.2565 23.9234 30.375 23.625 30.375C23.3266 30.375 23.0405 30.2565 22.8295 30.0455C22.6185 29.8345 22.5 29.5484 22.5 29.25ZM18 28.125C18.2984 28.125 18.5845 28.2435 18.7955 28.4545C19.0065 28.6655 19.125 28.9516 19.125 29.25C19.125 29.5484 19.0065 29.8345 18.7955 30.0455C18.5845 30.2565 18.2984 30.375 18 30.375C17.7016 30.375 17.4155 30.2565 17.2045 30.0455C16.9935 29.8345 16.875 29.5484 16.875 29.25C16.875 28.9516 16.9935 28.6655 17.2045 28.4545C17.4155 28.2435 17.7016 28.125 18 28.125ZM12.375 25.875C12.375 25.5766 12.4935 25.2905 12.7045 25.0795C12.9155 24.8685 13.2016 24.75 13.5 24.75C13.7984 24.75 14.0845 24.8685 14.2955 25.0795C14.5065 25.2905 14.625 25.5766 14.625 25.875C14.625 26.1734 14.5065 26.4595 14.2955 26.6705C14.0845 26.8815 13.7984 27 13.5 27C13.2016 27 12.9155 26.8815 12.7045 26.6705C12.4935 26.4595 12.375 26.1734 12.375 25.875Z" fill="#2D9CDB"/>
</g>
<defs>
<clipPath id="clip0_10_2150">
<rect width="36" height="36" fill="white"/>
</clipPath>
</defs>
</svg>
