<svg width="45" height="36" viewBox="0 0 45 36" fill="none" xmlns="http://www.w3.org/2000/svg">
<g clip-path="url(#clip0_10_2142)">
<path d="M2.25 15.75C2.25 8.29688 8.29688 2.25 15.75 2.25H16.875C21.5227 2.25 25.8117 5.0625 27.6891 9.06328C27.9141 9.54844 28.1461 10.0617 28.3852 10.5891C28.8211 11.5664 29.2781 12.593 29.7773 13.5422C30.5578 15.0398 31.5211 16.5164 32.8711 17.7188L33.0961 17.9156C33.518 18.2883 33.7641 18.8297 33.7641 19.3992C33.7641 20.4961 32.8781 21.382 31.7812 21.382H30.375C29.7563 21.382 29.25 21.8883 29.25 22.507V23.0695V23.632V24.3422L23.6953 25.1367C22.3664 25.3266 21.375 26.4656 21.375 27.8086C21.375 29.2148 22.4508 30.382 23.85 30.4945L28.0617 30.8461C27.8578 31.5492 27.2109 32.0625 26.4375 32.0625H21.375C20.7563 32.0625 20.25 32.5687 20.25 33.1875V34.875C20.25 35.4938 20.7563 36 21.375 36C21.9937 36 22.5 35.4938 22.5 34.875V34.3125H26.4375C28.6102 34.3125 30.375 32.5477 30.375 30.375V29.8125C30.375 29.2289 29.925 28.7367 29.3414 28.6945L24.0328 28.2516C23.8008 28.2305 23.625 28.0406 23.625 27.8016C23.625 27.5766 23.7867 27.3867 24.0117 27.3586L30.5367 26.4234C31.0922 26.3461 31.5 25.868 31.5 25.3125V23.625H31.7672C34.1016 23.625 36 21.7336 36 19.3922C36 18.1828 35.4797 17.0297 34.5797 16.2281L34.3547 16.0312C33.293 15.082 32.4844 13.8797 31.7602 12.4945C31.2891 11.6016 30.8953 10.7016 30.4805 9.77344C30.2344 9.225 29.9883 8.66953 29.7211 8.1C27.4781 3.32578 22.4016 0 16.875 0H15.75C7.05234 0 0 7.05234 0 15.75C0 19.4695 1.29375 22.8937 3.45234 25.5938C4.11328 26.4094 4.5 27.3234 4.5 28.2234V34.875C4.5 35.4938 5.00625 36 5.625 36C6.24375 36 6.75 35.4938 6.75 34.875V28.2234C6.75 26.6695 6.08203 25.2773 5.21016 24.1875C3.35391 21.8742 2.25 18.9422 2.25 15.75ZM24.1875 15.75C24.4091 15.75 24.6285 15.7064 24.8333 15.6215C25.038 15.5367 25.224 15.4124 25.3807 15.2557C25.5374 15.099 25.6617 14.913 25.7465 14.7083C25.8314 14.5035 25.875 14.2841 25.875 14.0625C25.875 13.8409 25.8314 13.6215 25.7465 13.4167C25.6617 13.212 25.5374 13.026 25.3807 12.8693C25.224 12.7126 25.038 12.5883 24.8333 12.5035C24.6285 12.4186 24.4091 12.375 24.1875 12.375C23.9659 12.375 23.7465 12.4186 23.5417 12.5035C23.337 12.5883 23.151 12.7126 22.9943 12.8693C22.8376 13.026 22.7133 13.212 22.6285 13.4167C22.5436 13.6215 22.5 13.8409 22.5 14.0625C22.5 14.2841 22.5436 14.5035 22.6285 14.7083C22.7133 14.913 22.8376 15.099 22.9943 15.2557C23.151 15.4124 23.337 15.5367 23.5417 15.6215C23.7465 15.7064 23.9659 15.75 24.1875 15.75ZM36 27.5625C36 27.1149 35.8222 26.6857 35.5057 26.3693C35.1893 26.0528 34.7601 25.875 34.3125 25.875C33.8649 25.875 33.4357 26.0528 33.1193 26.3693C32.8028 26.6857 32.625 27.1149 32.625 27.5625C32.625 28.0101 32.8028 28.4393 33.1193 28.7557C33.4357 29.0722 33.8649 29.25 34.3125 29.25C34.7601 29.25 35.1893 29.0722 35.5057 28.7557C35.8222 28.4393 36 28.0101 36 27.5625ZM43.3125 29.25C43.7601 29.25 44.1893 29.0722 44.5057 28.7557C44.8222 28.4393 45 28.0101 45 27.5625C45 27.1149 44.8222 26.6857 44.5057 26.3693C44.1893 26.0528 43.7601 25.875 43.3125 25.875C42.8649 25.875 42.4357 26.0528 42.1193 26.3693C41.8028 26.6857 41.625 27.1149 41.625 27.5625C41.625 28.0101 41.8028 28.4393 42.1193 28.7557C42.4357 29.0722 42.8649 29.25 43.3125 29.25ZM45 34.3125C45 33.8649 44.8222 33.4357 44.5057 33.1193C44.1893 32.8028 43.7601 32.625 43.3125 32.625C42.8649 32.625 42.4357 32.8028 42.1193 33.1193C41.8028 33.4357 41.625 33.8649 41.625 34.3125C41.625 34.7601 41.8028 35.1893 42.1193 35.5057C42.4357 35.8222 42.8649 36 43.3125 36C43.7601 36 44.1893 35.8222 44.5057 35.5057C44.8222 35.1893 45 34.7601 45 34.3125ZM38.8125 25.875C39.2601 25.875 39.6893 25.6972 40.0057 25.3807C40.3222 25.0643 40.5 24.6351 40.5 24.1875C40.5 23.7399 40.3222 23.3107 40.0057 22.9943C39.6893 22.6778 39.2601 22.5 38.8125 22.5C38.3649 22.5 37.9357 22.6778 37.6193 22.9943C37.3028 23.3107 37.125 23.7399 37.125 24.1875C37.125 24.6351 37.3028 25.0643 37.6193 25.3807C37.9357 25.6972 38.3649 25.875 38.8125 25.875ZM45 20.8125C45 20.3649 44.8222 19.9357 44.5057 19.6193C44.1893 19.3028 43.7601 19.125 43.3125 19.125C42.8649 19.125 42.4357 19.3028 42.1193 19.6193C41.8028 19.9357 41.625 20.3649 41.625 20.8125C41.625 21.2601 41.8028 21.6893 42.1193 22.0057C42.4357 22.3222 42.8649 22.5 43.3125 22.5C43.7601 22.5 44.1893 22.3222 44.5057 22.0057C44.8222 21.6893 45 21.2601 45 20.8125ZM38.8125 32.625C39.2601 32.625 39.6893 32.4472 40.0057 32.1307C40.3222 31.8143 40.5 31.3851 40.5 30.9375C40.5 30.4899 40.3222 30.0607 40.0057 29.7443C39.6893 29.4278 39.2601 29.25 38.8125 29.25C38.3649 29.25 37.9357 29.4278 37.6193 29.7443C37.3028 30.0607 37.125 30.4899 37.125 30.9375C37.125 31.3851 37.3028 31.8143 37.6193 32.1307C37.9357 32.4472 38.3649 32.625 38.8125 32.625Z" fill="#2D9CDB"/>
</g>
<defs>
<clipPath id="clip0_10_2142">
<rect width="45" height="36" fill="white"/>
</clipPath>
</defs>
</svg>
