<svg width="195" height="200" viewBox="0 0 195 200" fill="none" xmlns="http://www.w3.org/2000/svg">
<g clip-path="url(#clip0_79_1392)">
<path d="M15.5031 89.1058H118.396V89.1079H131.11C127.679 89.0659 124.39 87.7345 121.895 85.378C119.4 83.0215 117.883 79.8124 117.644 76.3881L115.604 41.9127H0L2.03957 76.3885C2.27777 79.8123 3.79482 83.0212 6.28924 85.3773C8.78365 87.7335 12.0728 89.0645 15.5031 89.1058Z" fill="#2F80ED"/>
<path opacity="0.8" d="M15.5031 89.1058H118.396V89.1079H131.11C127.679 89.0659 124.39 87.7345 121.895 85.378C119.4 83.0215 117.883 79.8124 117.644 76.3881L115.604 41.9127H0L2.03957 76.3885C2.27777 79.8123 3.79482 83.0212 6.28924 85.3773C8.78365 87.7335 12.0728 89.0645 15.5031 89.1058Z" fill="white"/>
<path d="M139.673 19.0009V19.003H36.7801C35.1393 18.9826 33.5122 19.3036 32.0019 19.9456C30.4917 20.5875 29.1312 21.5364 28.0068 22.732C26.8824 23.9277 26.0186 25.3441 25.4702 26.8914C24.9217 28.4386 24.7006 30.083 24.8209 31.7203L27.4633 76.3861C27.5833 78.0236 27.362 79.6681 26.8133 81.2156C26.2647 82.763 25.4008 84.1795 24.2762 85.3754C23.1517 86.5712 21.7911 87.5203 20.2807 88.1625C18.7703 88.8046 17.143 89.1259 15.502 89.1058H28.2158V89.1037H131.109C132.75 89.1241 134.377 88.8032 135.887 88.1613C137.398 87.5194 138.758 86.5705 139.883 85.3748C141.007 84.1791 141.871 82.7627 142.419 81.2154C142.968 79.6682 143.189 78.0237 143.069 76.3865L143.355 81.2208L140.426 31.7207C140.306 30.0832 140.528 28.4386 141.076 26.8911C141.625 25.3437 142.489 23.9272 143.613 22.7313C144.738 21.5355 146.099 20.5864 147.609 19.9442C149.119 19.3021 150.747 18.9808 152.388 19.0009H139.673Z" fill="#2F80ED"/>
<path d="M152.389 19.0031H49.4952V19.001H36.7812C40.212 19.0429 43.5015 20.3744 45.9963 22.7309C48.4911 25.0874 50.0087 28.2965 50.2476 31.7207L60.181 199.629H175.786L165.852 31.7204C165.614 28.2966 164.097 25.0878 161.603 22.7316C159.108 20.3755 155.819 19.0445 152.389 19.0031Z" fill="#2F80ED"/>
<path opacity="0.8" d="M152.389 19.0031H49.4952V19.001H36.7812C40.212 19.0429 43.5015 20.3744 45.9963 22.7309C48.4911 25.0874 50.0087 28.2965 50.2476 31.7207L60.181 199.629H175.786L165.852 31.7204C165.614 28.2966 164.097 25.0878 161.603 22.7316C159.108 20.3755 155.819 19.0445 152.389 19.0031Z" fill="white"/>
<path d="M172.631 44.1211C184.431 44.1211 193.997 34.5271 193.997 22.6924C193.997 10.8576 184.431 1.26367 172.631 1.26367C160.83 1.26367 151.264 10.8576 151.264 22.6924C151.264 34.5271 160.83 44.1211 172.631 44.1211Z" fill="white"/>
<path opacity="0.3" d="M172.63 44.3846C168.352 44.3846 164.17 43.1124 160.613 40.7289C157.056 38.3453 154.284 34.9575 152.647 30.9937C151.009 27.03 150.581 22.6684 151.416 18.4605C152.25 14.2526 154.31 10.3874 157.335 7.35368C160.36 4.31994 164.214 2.25392 168.41 1.41687C172.605 0.579824 176.954 1.00934 180.907 2.65113C184.859 4.29291 188.237 7.07323 190.614 10.6405C192.991 14.2077 194.259 18.4017 194.259 22.692C194.253 28.4432 191.972 33.9569 187.917 38.0237C183.862 42.0904 178.364 44.378 172.63 44.3846ZM172.63 1.52717C168.456 1.52717 164.376 2.7685 160.905 5.09417C157.434 7.41984 154.729 10.7254 153.132 14.5929C151.535 18.4603 151.117 22.7159 151.931 26.8216C152.746 30.9272 154.756 34.6985 157.707 37.6585C160.659 40.6184 164.419 42.6342 168.513 43.4508C172.607 44.2674 176.85 43.8483 180.706 42.2463C184.562 40.6443 187.858 37.9314 190.177 34.4508C192.496 30.9702 193.734 26.8781 193.734 22.692C193.727 17.0807 191.502 11.701 187.545 7.73331C183.589 3.76557 178.225 1.53373 172.63 1.52744V1.52717Z" fill="#2F80ED"/>
<path d="M89.1807 66.7715H67.7307L66.4609 45.3154H87.9109L89.1807 66.7715ZM70.1072 64.2487H86.5057L85.5344 47.8386H69.1359L70.1072 64.2487Z" fill="white"/>
<path d="M92.1647 117.232H70.7147L69.4453 95.7762H90.8953L92.1647 117.232ZM73.0913 114.709H89.4898L88.5188 98.2992H72.1203L73.0913 114.709Z" fill="white"/>
<path d="M95.1491 167.693H73.6991L72.4297 146.237H93.8797L95.1491 167.693ZM76.0756 165.17H92.4742L91.5028 148.76H75.1043L76.0756 165.17Z" fill="white"/>
<path d="M148.965 45.3158H99.6484V47.8387H148.965V45.3158Z" fill="white"/>
<path d="M143.73 54.7822H100.207V57.3051H143.73V54.7822Z" fill="white"/>
<path d="M150.084 64.249H100.768V66.7719H150.084V64.249Z" fill="white"/>
<path d="M151.949 95.7764H102.633V98.2993H151.949V95.7764Z" fill="white"/>
<path d="M132.14 105.243H103.193V107.766H132.14V105.243Z" fill="white"/>
<path d="M118.698 114.709H103.754V117.232H118.698V114.709Z" fill="white"/>
<path d="M153.069 114.709H128.41V117.232H153.069V114.709Z" fill="white"/>
<path d="M154.934 146.237H105.617V148.76H154.934V146.237Z" fill="white"/>
<path d="M155.495 155.704H106.178V158.227H155.495V155.704Z" fill="white"/>
<path d="M134.012 165.17H106.738V167.693H134.012V165.17Z" fill="white"/>
<path d="M79.8619 61.726C79.3255 61.7261 78.8094 61.5209 78.4193 61.1525L73.1511 56.1765C72.7458 55.7937 72.5091 55.2655 72.4931 54.7081C72.477 54.1508 72.683 53.6098 73.0656 53.2044C73.4482 52.7989 73.9761 52.5621 74.5332 52.5461C75.0904 52.53 75.631 52.7361 76.0363 53.1189L79.7741 56.6489L88.1779 47.7125C88.5598 47.3064 89.0873 47.0687 89.6444 47.0518C90.2014 47.0348 90.7424 47.2399 91.1483 47.622C91.5541 48.004 91.7917 48.5318 91.8087 49.0891C91.8256 49.6464 91.6206 50.1876 91.2387 50.5937L81.392 61.0639C81.2027 61.2653 80.9756 61.4274 80.7236 61.5408C80.4716 61.6542 80.1998 61.7168 79.9236 61.7248C79.9035 61.7259 79.8823 61.726 79.8619 61.726Z" fill="#2F80ED"/>
<path d="M82.8482 112.186C82.3118 112.186 81.7957 111.981 81.4056 111.613L76.1374 106.637C75.9367 106.447 75.7753 106.22 75.6624 105.968C75.5495 105.716 75.4873 105.444 75.4794 105.168C75.4714 104.892 75.5179 104.618 75.6162 104.36C75.7144 104.102 75.8624 103.865 76.0519 103.665C76.2413 103.464 76.4685 103.302 76.7203 103.189C76.9721 103.077 77.2437 103.014 77.5196 103.006C77.7954 102.998 78.0701 103.045 78.328 103.143C78.5859 103.241 78.822 103.39 79.0226 103.579L82.7605 107.109L91.1643 98.1728C91.353 97.97 91.5798 97.8064 91.8319 97.6915C92.0839 97.5767 92.3562 97.5128 92.633 97.5036C92.9098 97.4944 93.1857 97.54 93.4448 97.6378C93.7039 97.7357 93.9412 97.8838 94.1429 98.0737C94.3446 98.2635 94.5068 98.4914 94.6202 98.7443C94.7335 98.9971 94.7958 99.2698 94.8035 99.5468C94.8111 99.8238 94.7639 100.1 94.6647 100.358C94.5654 100.617 94.416 100.853 94.2251 101.054L84.3786 111.524C84.1894 111.726 83.9623 111.888 83.7103 112.001C83.4583 112.115 83.1865 112.177 82.9103 112.185C82.8898 112.186 82.8686 112.186 82.8482 112.186Z" fill="#2F80ED"/>
<path d="M85.8326 162.647C85.2962 162.647 84.7801 162.442 84.39 162.073L79.1218 157.098C78.7165 156.715 78.4798 156.187 78.4638 155.629C78.4477 155.072 78.6537 154.531 79.0363 154.126C79.4189 153.72 79.9468 153.483 80.5039 153.467C81.0611 153.451 81.6017 153.657 82.007 154.04L85.7448 157.57L94.1487 148.634C94.3373 148.431 94.5642 148.267 94.8163 148.152C95.0683 148.038 95.3406 147.974 95.6174 147.964C95.8942 147.955 96.1701 148.001 96.4292 148.099C96.6883 148.196 96.9256 148.345 97.1273 148.534C97.329 148.724 97.4912 148.952 97.6045 149.205C97.7179 149.458 97.7802 149.731 97.7878 150.008C97.7955 150.285 97.7483 150.56 97.6491 150.819C97.5498 151.078 97.4004 151.314 97.2095 151.515L87.363 161.985C87.1738 162.187 86.9467 162.349 86.6947 162.462C86.4427 162.576 86.1708 162.638 85.8947 162.646C85.8742 162.647 85.8531 162.647 85.8326 162.647Z" fill="#2F80ED"/>
<path d="M166.5 17C165.672 17 165 17.6719 165 18.5C165 18.9719 165.222 19.4156 165.6 19.7L172.4 24.8C172.756 25.0656 173.244 25.0656 173.6 24.8L180.4 19.7C180.778 19.4156 181 18.9719 181 18.5C181 17.6719 180.328 17 179.5 17H166.5ZM165 20.5V27C165 28.1031 165.897 29 167 29H179C180.103 29 181 28.1031 181 27V20.5L174.2 25.6C173.488 26.1344 172.513 26.1344 171.8 25.6L165 20.5Z" fill="#2F80ED"/>
</g>
<defs>
<clipPath id="clip0_79_1392">
<rect width="195" height="200" fill="white"/>
</clipPath>
</defs>
</svg>
