<svg width="20" height="20" viewBox="0 0 20 20" fill="none" xmlns="http://www.w3.org/2000/svg">
<g clip-path="url(#clip0_18_3497)">
<path d="M10.0001 6.21977C9.21292 6.22062 8.44363 6.44327 7.78955 6.85959C7.13547 7.2759 6.62597 7.86719 6.32546 8.55867C6.02495 9.25016 5.94694 10.0108 6.10128 10.7444C6.25562 11.478 6.63538 12.1517 7.19255 12.6802C7.74973 13.2088 8.45929 13.5684 9.23152 13.7137C10.0038 13.859 10.804 13.7834 11.531 13.4965C12.2581 13.2097 12.8793 12.7243 13.3161 12.102C13.753 11.4796 13.9858 10.7481 13.9852 9.99992C13.9836 8.99659 13.563 8.0349 12.8158 7.32611C12.0686 6.61731 11.0559 6.2194 10.0001 6.21977ZM19.3061 3.31197C19.1035 2.82392 18.7975 2.38064 18.4071 2.00963C18.0167 1.63863 17.5503 1.34782 17.0367 1.15523C15.4695 0.567289 11.7382 0.699204 9.9994 0.699204C8.26059 0.699204 4.53298 0.562324 2.96134 1.15523C2.44779 1.34782 1.98135 1.63863 1.59097 2.00963C1.20058 2.38064 0.894578 2.82392 0.691933 3.31197C0.074023 4.80133 0.212083 8.35098 0.212083 10.002C0.212083 11.6531 0.0747695 15.1985 0.695665 16.6879C0.898309 17.1759 1.20431 17.6192 1.5947 17.9902C1.98508 18.3612 2.45152 18.652 2.96507 18.8446C4.53223 19.4325 8.26357 19.3006 10.0031 19.3006C11.7427 19.3006 15.4688 19.4375 17.0404 18.8446C17.554 18.652 18.0204 18.3612 18.4108 17.9902C18.8012 17.6192 19.1072 17.1759 19.3098 16.6879C19.933 15.1985 19.7897 11.6489 19.7897 9.99779C19.7897 8.34673 19.933 4.80133 19.3136 3.31197H19.3061ZM10.0001 15.8155C8.78984 15.8155 7.60671 15.4744 6.60038 14.8354C5.59405 14.1964 4.80971 13.2881 4.34655 12.2255C3.88339 11.1628 3.7622 9.99347 3.99832 8.86535C4.23444 7.73723 4.81726 6.70099 5.67307 5.88766C6.52888 5.07434 7.61926 4.52045 8.8063 4.29606C9.99335 4.07166 11.2238 4.18683 12.3419 4.627C13.4601 5.06717 14.4158 5.81257 15.0882 6.76894C15.7606 7.72531 16.1195 8.8497 16.1195 9.99992C16.1205 10.7639 15.9629 11.5206 15.6557 12.2266C15.3485 12.9326 14.8978 13.574 14.3294 14.1143C13.761 14.6545 13.086 15.0828 12.3431 15.3747C11.6002 15.6667 10.804 15.8165 10.0001 15.8155ZM16.3718 5.29779C16.0892 5.29793 15.813 5.21843 15.578 5.06936C15.343 4.92029 15.1598 4.70833 15.0516 4.46031C14.9434 4.21228 14.915 3.93932 14.97 3.67595C15.0251 3.41259 15.161 3.17064 15.3608 2.98073C15.5605 2.79082 15.815 2.66146 16.0921 2.60903C16.3692 2.55659 16.6564 2.58343 16.9175 2.68616C17.1785 2.78888 17.4016 2.96286 17.5586 3.18611C17.7156 3.40936 17.7994 3.67183 17.7994 3.94034C17.7998 4.11853 17.7632 4.29504 17.6917 4.45976C17.6202 4.62449 17.5152 4.77418 17.3827 4.90028C17.2502 5.02638 17.0929 5.1264 16.9197 5.19461C16.7464 5.26282 16.5608 5.29788 16.3733 5.29779H16.3718Z" fill="white"/>
</g>
<defs>
<clipPath id="clip0_18_3497">
<rect width="20" height="20" fill="white"/>
</clipPath>
</defs>
</svg>
