<svg width="23" height="36" viewBox="0 0 23 36" fill="none" xmlns="http://www.w3.org/2000/svg">
<path d="M11.5 5.625C11.7265 5.625 11.9508 5.58135 12.1601 5.49655C12.3694 5.41174 12.5596 5.28744 12.7197 5.13074C12.8799 4.97404 13.007 4.78802 13.0937 4.58328C13.1804 4.37854 13.225 4.15911 13.225 3.9375C13.225 3.71589 13.1804 3.49646 13.0937 3.29172C13.007 3.08698 12.8799 2.90096 12.7197 2.74426C12.5596 2.58756 12.3694 2.46326 12.1601 2.37845C11.9508 2.29365 11.7265 2.25 11.5 2.25C11.2735 2.25 11.0491 2.29365 10.8399 2.37845C10.6306 2.46326 10.4404 2.58756 10.2802 2.74426C10.12 2.90096 9.99298 3.08698 9.90629 3.29172C9.8196 3.49646 9.77499 3.71589 9.77499 3.9375C9.77499 4.15911 9.8196 4.37854 9.90629 4.58328C9.99298 4.78802 10.12 4.97404 10.2802 5.13074C10.4404 5.28744 10.6306 5.41174 10.8399 5.49655C11.0491 5.58135 11.2735 5.625 11.5 5.625ZM11.5 0C12.5675 0 13.5913 0.414843 14.3461 1.15327C15.1009 1.89169 15.525 2.89321 15.525 3.9375C15.525 4.98179 15.1009 5.98331 14.3461 6.72173C13.5913 7.46016 12.5675 7.875 11.5 7.875C10.4325 7.875 9.40872 7.46016 8.65388 6.72173C7.89905 5.98331 7.47499 4.98179 7.47499 3.9375C7.47499 2.89321 7.89905 1.89169 8.65388 1.15327C9.40872 0.414843 10.4325 0 11.5 0ZM9.19999 11.5312V22.5H13.8V11.5312C13.3687 11.3484 12.9015 11.25 12.4128 11.25H10.5872C10.0984 11.25 9.63124 11.3484 9.19999 11.5312ZM9.19999 24.75V34.875C9.19999 35.4938 8.68249 36 8.04999 36C7.41749 36 6.89999 35.4938 6.89999 34.875V14.2102L3.31342 20.7773C3.01155 21.3258 2.31436 21.5297 1.75374 21.2414C1.19311 20.9531 0.984673 20.2641 1.27936 19.7156L5.5128 11.9742C6.51186 10.1461 8.45967 9 10.5872 9H12.4128C14.5331 9 16.4881 10.1461 17.4872 11.9742L21.7134 19.7227C22.0153 20.2711 21.7997 20.9531 21.239 21.2484C20.6784 21.5438 19.9812 21.3328 19.6794 20.7844L16.1 14.2172V34.875C16.1 35.4938 15.5825 36 14.95 36C14.3175 36 13.8 35.4938 13.8 34.875V24.75H9.19999Z" fill="#2D9CDB"/>
</svg>
