<svg width="162" height="42" viewBox="0 0 162 42" fill="none" xmlns="http://www.w3.org/2000/svg">
<g clip-path="url(#clip0_18_3471)">
<g clip-path="url(#clip1_18_3471)">
<path fill-rule="evenodd" clip-rule="evenodd" d="M16.7288 6.88337C16.7288 5.49594 17.8442 4.37503 19.2248 4.37503H34.2006C35.5812 4.37503 36.6965 5.49594 36.6965 6.88337V8.10538H39.1925V6.88337C39.1925 4.11636 36.9539 1.8667 34.2006 1.8667H19.2248C16.4714 1.8667 14.2328 4.11636 14.2328 6.88337V8.10538H16.7288V6.88337ZM16.7288 36.1054H14.2328V36.9834C14.2328 39.7504 16.4714 42 19.2248 42H34.2006C36.9539 42 39.1925 39.7504 39.1925 36.9834V36.1054H36.6965V36.9834C36.6965 38.3708 35.5812 39.4917 34.2006 39.4917H19.2248C17.8442 39.4917 16.7288 38.3708 16.7288 36.9834V36.1054Z" fill="white"/>
</g>
<path fill-rule="evenodd" clip-rule="evenodd" d="M14.7666 13.863L15.4568 14.6413C15.6352 14.8373 15.8825 14.9526 16.1471 14.9526C16.4117 14.9526 16.6648 14.8373 16.8374 14.6413L17.5277 13.863L17.7693 13.5921C19.2649 11.9087 21.5256 11.1246 23.7403 11.5282C26.8063 12.0874 29.0324 14.7624 29.0324 17.8871V18.0889C29.0324 19.951 28.2616 21.7266 26.9041 22.995L16.3197 32.8706C16.2737 32.9167 16.2104 32.9398 16.1471 32.9398C16.0839 32.9398 16.0206 32.911 15.9746 32.8706L5.39594 22.995C4.03263 21.7266 3.26181 19.951 3.26181 18.0889V17.8871C3.26181 14.7624 5.48798 12.0874 8.55399 11.5282C10.7687 11.1246 13.0293 11.9087 14.525 13.5921L14.7666 13.863ZM24.0681 9.71215C21.7097 9.28553 19.3109 9.9024 17.4644 11.3494H17.4587L17.148 11.6089C16.8777 11.8395 16.6246 12.0931 16.383 12.3641L16.1414 12.6351L15.8998 12.3641C15.5719 11.9894 15.2095 11.655 14.8241 11.3494C12.9776 9.89664 10.5788 9.28553 8.22611 9.71215C4.28573 10.4328 1.42105 13.8746 1.42105 17.8871V18.0889C1.42105 20.1643 2.17461 22.159 3.52067 23.7156C3.71625 23.9347 3.91758 24.148 4.13617 24.3498L14.7205 34.2196C15.1117 34.5771 15.6179 34.7789 16.1471 34.7789C16.6073 34.7789 17.056 34.629 17.4184 34.3465L17.4184 34.3465C17.4702 34.3061 17.522 34.2658 17.568 34.2196L28.1523 24.344C28.3709 24.1422 28.5723 23.9289 28.7678 23.7098C29.1708 23.2476 29.5206 22.7459 29.8131 22.2144H34.5975C35.5393 22.2144 36.3612 21.5708 36.5924 20.6527L38.3347 13.6724L41.845 31.2712C41.9092 31.5887 42.1789 31.8161 42.4999 31.8247C42.821 31.8333 43.1035 31.6145 43.1806 31.3056L46.7765 18.4226L47.8787 20.4079C48.1912 21.1887 48.9447 21.7035 49.788 21.7035H55.0234C55.4002 21.7035 55.7084 21.3946 55.7084 21.0171C55.7084 20.6395 55.4002 20.3306 55.0234 20.3306H49.788C49.5097 20.3306 49.2572 20.159 49.1501 19.8973L47.2602 15.9385C47.1489 15.664 46.875 15.4881 46.5796 15.5095C46.2842 15.531 46.0316 15.7412 45.9631 16.0286L42.5941 28.0106L39.0838 10.4117C39.0196 10.0985 38.7499 9.86685 38.4289 9.85827C38.1078 9.84969 37.8253 10.0685 37.7482 10.3774L35.261 20.3223C35.1883 20.627 34.9143 20.8415 34.5975 20.8415H30.4185C30.7167 19.9636 30.8732 19.0346 30.8732 18.0889V17.8871C30.8732 13.8746 28.0085 10.4328 24.0681 9.71215Z" fill="white"/>
</g>
<path d="M66.2396 27.6316V23.072L61.8141 15.2939H64.5154L67.5423 20.8689L70.5693 15.2939H73.2514L68.8259 23.072V27.6316H66.2396ZM77.1959 27.8232C75.4973 27.8232 74.252 27.4145 73.4602 26.5971C72.6683 25.7669 72.2724 24.5983 72.2724 23.0912C72.2724 21.5841 72.6683 20.4218 73.4602 19.6044C74.2648 18.7743 75.51 18.3592 77.1959 18.3592C78.8946 18.3592 80.1399 18.7743 80.9317 19.6044C81.7364 20.4218 82.1387 21.5841 82.1387 23.0912C82.1387 24.5983 81.7427 25.7669 80.9509 26.5971C80.159 27.4145 78.9074 27.8232 77.1959 27.8232ZM77.1959 25.62C78.0261 25.62 78.62 25.4348 78.9776 25.0644C79.3352 24.6813 79.514 24.0235 79.514 23.0912C79.514 22.1588 79.3352 21.5075 78.9776 21.1371C78.62 20.7539 78.0261 20.5623 77.1959 20.5623C76.3785 20.5623 75.791 20.7539 75.4334 21.1371C75.0758 21.5075 74.897 22.1588 74.897 23.0912C74.897 24.0235 75.0758 24.6813 75.4334 25.0644C75.791 25.4348 76.3785 25.62 77.1959 25.62ZM87.2896 27.8232C86.204 27.8232 85.3547 27.523 84.7416 26.9227C84.1413 26.3097 83.8412 25.4157 83.8412 24.2406V18.5507H86.4275V24.1832C86.4275 24.7962 86.5744 25.2432 86.8681 25.5242C87.1619 25.7924 87.6025 25.9265 88.19 25.9265C88.637 25.9265 89.0457 25.8371 89.4161 25.6583C89.7993 25.4795 90.125 25.256 90.3932 24.9878V18.5507H92.9795V27.6316H90.5848L90.489 26.7695C90.1058 27.076 89.6524 27.3315 89.1288 27.5358C88.6179 27.7274 88.0048 27.8232 87.2896 27.8232ZM95.181 27.6316V18.5507H97.5758L97.6907 19.4895C98.0994 19.234 98.6039 19.0042 99.2042 18.7998C99.8172 18.5827 100.418 18.4358 101.005 18.3592V20.3133C100.66 20.3644 100.283 20.441 99.8747 20.5432C99.466 20.6453 99.0765 20.7603 98.7061 20.888C98.3357 21.0157 98.0228 21.1498 97.7673 21.2903V27.6316H95.181ZM104.494 27.6316V17.2863H100.701V15.2939H110.855V17.2863H107.08V27.6316H104.494ZM115.198 27.8232C113.627 27.8232 112.382 27.4336 111.462 26.6545C110.543 25.8627 110.083 24.6685 110.083 23.072C110.083 21.6288 110.466 20.4857 111.232 19.6427C112.012 18.787 113.167 18.3592 114.7 18.3592C116.105 18.3592 117.178 18.7296 117.919 19.4703C118.672 20.1983 119.049 21.1562 119.049 22.344V23.9916H112.478C112.618 24.7196 112.95 25.2177 113.474 25.4859C114.01 25.7541 114.764 25.8882 115.735 25.8882C116.22 25.8882 116.712 25.8435 117.21 25.7541C117.721 25.6647 118.155 25.5498 118.512 25.4093V27.2484C118.091 27.44 117.599 27.5805 117.037 27.6699C116.475 27.7721 115.862 27.8232 115.198 27.8232ZM112.478 22.4015H116.788V21.9034C116.788 21.3797 116.635 20.971 116.328 20.6773C116.022 20.3707 115.505 20.2175 114.777 20.2175C113.921 20.2175 113.321 20.3899 112.976 20.7347C112.644 21.0796 112.478 21.6352 112.478 22.4015ZM123.378 27.8232C122.497 27.8232 121.852 27.6188 121.443 27.2101C121.048 26.8014 120.85 26.15 120.85 25.256V14.7192H123.436V25.0453C123.436 25.3646 123.5 25.5881 123.627 25.7158C123.755 25.8307 123.94 25.8882 124.183 25.8882C124.515 25.8882 124.815 25.8435 125.083 25.7541V27.5358C124.598 27.7274 124.03 27.8232 123.378 27.8232ZM131.288 27.8232C129.717 27.8232 128.472 27.4336 127.552 26.6545C126.632 25.8627 126.173 24.6685 126.173 23.072C126.173 21.6288 126.556 20.4857 127.322 19.6427C128.101 18.787 129.257 18.3592 130.79 18.3592C132.195 18.3592 133.267 18.7296 134.008 19.4703C134.762 20.1983 135.139 21.1562 135.139 22.344V23.9916H128.567C128.708 24.7196 129.04 25.2177 129.564 25.4859C130.1 25.7541 130.854 25.8882 131.824 25.8882C132.31 25.8882 132.801 25.8435 133.299 25.7541C133.81 25.6647 134.245 25.5498 134.602 25.4093V27.2484C134.181 27.44 133.689 27.5805 133.127 27.6699C132.565 27.7721 131.952 27.8232 131.288 27.8232ZM128.567 22.4015H132.878V21.9034C132.878 21.3797 132.725 20.971 132.418 20.6773C132.112 20.3707 131.594 20.2175 130.866 20.2175C130.011 20.2175 129.41 20.3899 129.065 20.7347C128.733 21.0796 128.567 21.6352 128.567 22.4015ZM136.939 27.6316V15.2939H142.859C144.277 15.2939 145.318 15.6707 145.982 16.4242C146.646 17.165 146.978 18.1676 146.978 19.432C146.978 20.2622 146.761 20.9774 146.327 21.5777C145.905 22.178 145.305 22.6122 144.526 22.8804C144.73 23.0465 144.89 23.2253 145.005 23.4169C145.132 23.6084 145.26 23.8639 145.388 24.1832L146.882 27.6316H144.2L142.744 24.3173C142.616 24.0363 142.476 23.8383 142.323 23.7234C142.169 23.6084 141.914 23.551 141.556 23.551H139.526V27.6316H136.939ZM139.526 21.4053H142.189C142.865 21.4053 143.395 21.2584 143.779 20.9646C144.162 20.6581 144.353 20.1472 144.353 19.432C144.353 18.7423 144.187 18.2378 143.855 17.9185C143.523 17.5992 143.019 17.4396 142.342 17.4396H139.526V21.4053ZM147.912 27.6316L152.376 21.4436L148.027 15.2939H151.073L153.928 19.4129L156.782 15.2939H159.829L155.48 21.4436L159.944 27.6316H156.859L153.928 23.5126L150.997 27.6316H147.912Z" fill="white"/>
<defs>
<clipPath id="clip0_18_3471">
<rect width="55.2632" height="42" fill="white" transform="translate(0.684204)"/>
</clipPath>
<clipPath id="clip1_18_3471">
<rect width="29.9516" height="40.1333" fill="white" transform="translate(11.7368 1.8667)"/>
</clipPath>
</defs>
</svg>
