<svg width="216" height="201" viewBox="0 0 216 201" fill="none" xmlns="http://www.w3.org/2000/svg">
<g clip-path="url(#clip0_18_3372)">
<path d="M135.009 65.2251L125.58 75.6794L109.044 57.6755L120.236 53.3955L135.009 65.2251Z" fill="#FFA46E"/>
<path d="M123.252 68.0863L122.677 68.3871L116.966 71.3779C115.426 72.2054 113.511 71.6238 112.686 70.0802C107.809 57.7563 102.033 46.421 94.8388 36.6394C94.016 35.0958 94.5937 33.1733 96.1334 32.3459L102.101 29.2188L102.419 29.0526C103.957 28.2252 105.873 28.8067 106.697 30.352C113.792 40.5407 119.669 51.7481 124.545 63.7911C125.369 65.3364 124.79 67.2588 123.252 68.0863Z" fill="#545454"/>
<path d="M107.281 38.8235L100.003 42.6495C98.6066 43.4002 96.8684 42.8726 96.1204 41.4712L93.6268 36.799C92.8789 35.3976 93.4044 33.653 94.8007 32.9023L102.079 29.0763C103.475 28.3256 105.214 28.8531 105.961 30.2545L108.455 34.9267C109.203 36.3281 108.677 38.0728 107.281 38.8235Z" fill="#333333"/>
<path d="M105.681 38.8482L99.9713 41.8306C98.7677 42.4777 97.2692 42.023 96.6245 40.8149L94.3789 36.6075C93.7342 35.3994 94.1872 33.8955 95.3909 33.2483L101.1 30.266C102.304 29.6189 103.802 30.0736 104.447 31.2817L106.692 35.4891C107.337 36.6972 106.884 38.2011 105.681 38.8482Z" fill="#6E6E6E"/>
<path d="M122.929 68.1426L115.651 71.9685C114.254 72.7193 112.516 72.1917 111.768 70.7903L109.275 66.1181C108.527 64.7167 109.052 62.9721 110.449 62.2214L117.727 58.3954C119.123 57.6447 120.861 58.1722 121.609 59.5736L124.103 64.2458C124.851 65.6472 124.325 67.3919 122.929 68.1426Z" fill="#333333"/>
<path d="M121.383 68.2696L115.674 71.252C114.47 71.8991 112.972 71.4444 112.327 70.2363L110.081 66.0289C109.437 64.8208 109.89 63.3169 111.093 62.6697L116.803 59.6874C118.006 59.0402 119.505 59.495 120.149 60.703L122.395 64.9105C123.04 66.1186 122.587 67.6225 121.383 68.2696Z" fill="#6E6E6E"/>
<path d="M109.315 62.3764C108.745 62.2493 103.554 59.1994 108.112 51.1933C111.404 50.9392 111.759 55.1768 111.151 56.2765C109.251 59.7077 109.315 62.3764 109.315 62.3764Z" fill="#FFA46E"/>
<path d="M123.252 68.0863L122.677 68.3871C122.801 68.0797 123.142 67.2356 123.48 66.2569C123.909 65.0224 118.452 56.5916 118.452 56.5916C118.452 56.5916 112.62 55.7857 109.892 50.4155C107.164 45.0469 109.303 39.8911 109.303 39.8911C109.303 39.8911 106.468 34.898 105.184 32.0518C104.46 30.45 103.128 29.6308 102.101 29.2188L102.419 29.0526C103.957 28.2252 105.873 28.8067 106.697 30.352C113.792 40.5407 119.669 51.7481 124.545 63.7911C125.369 65.3364 124.79 67.2588 123.252 68.0863Z" fill="#333333"/>
<path d="M115.709 55.2598C117.245 56.0721 118.891 54.9444 120.267 55.2598C120.975 55.4223 121.107 56.4998 121.723 56.9119C124.825 52.5276 118.847 41.3749 113.676 38.9679C113.339 38.8113 109.783 39.1539 109.968 44.6426C110.084 48.083 114.172 54.4476 115.709 55.2598Z" fill="#FFA46E"/>
<path d="M177.862 100.494C177.861 100.498 177.861 100.503 177.86 100.506C177.71 101.333 177.468 102.148 177.122 102.939C175.508 106.645 171.64 109.809 164.456 111.017C153.316 111.865 137.014 112.556 122.509 113.597C118.34 113.896 114.319 114.224 110.613 114.593C95.2686 110.619 86.0596 87.0855 104.045 82.0938C106.08 81.5289 114.509 81.3666 124.839 81.6383C143.622 82.1299 168.687 84.0554 173.01 87.5999C176.418 90.3932 178.737 95.63 177.862 100.494Z" fill="white"/>
<path d="M98.7545 84.0212C89.5684 91.4556 76.5747 93.4154 66.9206 84.6497C67.0144 79.7882 68.3563 65.2973 68.0288 60.5696L97.9746 64.6234C98.2035 70.3235 98.5239 78.2979 98.7545 84.0212Z" fill="#FFA46E"/>
<path d="M98.061 65.9178C98.0438 65.4828 98.0281 65.036 98.0122 64.6235H75.8977L69.2129 66.0366C69.2129 66.0366 78.6923 81.7444 98.7124 84.0551C98.4751 77.4287 98.1838 69.2867 98.061 65.9178Z" fill="#D46C42"/>
<path d="M102.398 45.6082C104.431 45.5068 105.975 43.3276 105.847 40.741C105.719 38.1543 103.967 36.1397 101.934 36.2411C99.9004 36.3426 98.3561 38.5217 98.4842 41.1084C98.6123 43.695 100.364 45.7097 102.398 45.6082Z" fill="#FFA46E"/>
<path d="M99.5113 26.6698C99.3627 27.1787 105.813 50.46 105.015 56.2738C98.2847 73.695 86.9051 79.9108 68.4059 66.648C65.6805 63.4677 57.2381 45.7686 57.0903 45.601C44.8029 21.7006 90.3161 1.59523 99.5113 26.6698Z" fill="#FFA46E"/>
<path d="M95.1746 21.2747C99.1405 22.206 100.526 32.9286 101.675 36.1995L101.892 35.5792C102.892 -9.07945 28.9074 13.2003 59.1092 49.6143C61.2977 50.9562 63.6511 55.3707 64.9726 58.563C64.6187 56.3915 67.1652 49.7611 66.2717 44.85C66.2717 44.85 61.0209 38.1926 62.633 31.7987C63.621 27.8801 71.9839 29.0744 79.1027 26.4734C86.3461 23.827 92.3245 20.1963 95.1746 21.2747Z" fill="#333333"/>
<path d="M77.9616 44.6834C78.854 47.158 76.3073 48.0957 75.3935 45.6291C74.5011 43.1546 77.0478 42.2168 77.9616 44.6834Z" fill="#333333"/>
<path d="M97.9563 37.4072C98.8487 39.8819 96.302 40.8196 95.3882 38.3529C94.4958 35.8785 97.0425 34.9407 97.9563 37.4072Z" fill="#333333"/>
<path d="M92.3126 54.1667C97.3036 52.5699 90.1767 46.7981 88.7061 45.3062C88.706 45.3063 87.5019 42.0126 87.5019 42.0126C87.4218 41.7936 87.1801 41.6812 86.9618 41.7616C86.7436 41.8419 86.6316 42.0846 86.7117 42.3036L87.9895 45.7989C90.2645 47.788 93.4834 51.2191 93.2632 52.3602C92.7339 54.2454 87.9741 53.4333 88.1541 54.3173C88.119 55.1565 90.7766 54.6236 92.3126 54.1667Z" fill="#C75038"/>
<path d="M92.2493 61.9888C93.5676 61.5033 94.4466 61.1105 94.5747 61.0527C95.0716 60.8355 94.7264 60.0497 94.2291 60.2824C94.1127 60.335 82.564 65.4892 78.0411 62.1028C77.8546 61.9633 77.5911 62.0023 77.4521 62.1888C79.2962 66.0667 89.1018 63.1713 92.2493 61.9888Z" fill="#C75038"/>
<path d="M71.8802 42.8857C68.1382 42.7381 74.4594 37.0308 78.1672 38.4443C78.6228 38.5367 78.9173 38.9824 78.8249 39.4398C78.7326 39.8969 78.2887 40.1926 77.8328 40.0999C73.5204 39.4459 72.772 42.4761 71.8802 42.8857Z" fill="#333333"/>
<path d="M91.5007 35.4295C88.2357 35.5615 92.728 30.0478 97.8823 31.2486C98.338 31.3412 98.6324 31.787 98.54 32.2443C98.4477 32.7016 98.0033 32.9971 97.5481 32.9044C93.2463 32.2298 92.3457 35.0423 91.5007 35.4295Z" fill="#333333"/>
<path d="M52.8667 26.1764C52.8667 26.1764 61.4604 7.42454 78.7808 2.75515C96.1011 -1.91423 92.4317 9.12397 92.4317 9.12397C110.637 6.26218 82.9863 26.2204 75.6917 27.7013C69.1054 29.518 52.461 31.656 52.8667 26.1764Z" fill="#333333"/>
<path d="M65.9803 59.2759C68.3281 57.4707 68.3833 53.586 66.1035 50.5991C63.8238 47.6122 60.0725 46.6542 57.7247 48.4593C55.3769 50.2644 55.3218 54.1492 57.6015 57.1361C59.8812 60.123 63.6325 61.081 65.9803 59.2759Z" fill="#FFA46E"/>
<path d="M63.7969 57.2466C63.5767 57.3277 63.3254 57.2346 63.2135 57.0207C61.4946 53.7392 60.1991 53.1362 59.5798 53.0689C58.9404 52.9994 58.5729 53.4278 58.5575 53.4461C58.3898 53.6455 58.0917 53.6752 57.8909 53.5097C57.69 53.3441 57.6572 53.0494 57.8197 52.8457C57.8472 52.8114 58.5032 52.0073 59.6539 52.1182C61.0967 52.2572 62.5772 53.7574 64.0541 56.5771C64.1761 56.8101 64.0869 57.0983 63.8548 57.2207C63.8357 57.2308 63.8165 57.2394 63.7969 57.2466Z" fill="#C75038"/>
<path d="M38.6665 210.34C38.2734 214.958 37.871 219.784 37.4818 224.604H111.551L112.084 84.622C108.294 83.8171 103.206 81.8451 98.061 81.418C94.8304 84.8966 92.8884 87.3262 87.3902 87.4498C83.99 87.5239 78.9648 85.764 75.6686 81.135C49.2823 83.7433 35.5816 93.0174 35.5816 93.0174L47.749 177.836C47.749 177.836 40.1464 192.961 38.6665 210.34Z" fill="#C5EAFF"/>
<path d="M90.6416 99.3567L95.4363 93.1447L87.6903 87.6257L79.3943 92.9347L84.2958 99.3567H90.6416Z" fill="#2F80ED"/>
<path d="M103.894 189.643L94.2733 205.532L85.05 190.146C87.251 161.789 86.2429 125.187 84.3592 95.3596L90.9176 95.4032C97.1243 125.742 102.296 161.662 103.894 189.643Z" fill="#2F80ED"/>
<path d="M102.054 81.907L98.6307 78.3325C98.3398 81.9635 91.6377 86.6672 87.6904 87.6259C91.2392 90.6599 93.9806 92.958 97.5486 98.4847L102.054 81.907Z" fill="#2D9CDB"/>
<path d="M62.6915 82.4665L67.841 75.946C67.841 75.946 78.167 83.692 87.6903 87.6258C83.4257 90.85 81.4781 94.1691 78.9206 98.4846L62.6915 82.4665Z" fill="#2D9CDB"/>
<path d="M32.5033 224.604H74.1643C79.7426 175.505 74.1976 128.087 62.0994 82.7822C39.1585 86.2212 35.3981 93.0175 35.3981 93.0175L45.3039 179.714L32.5033 224.604Z" fill="white"/>
<path d="M108.944 224.604H130.494L124.89 163.479L121.18 88.3455C110.665 83.2912 107.33 82.7273 101.713 81.5542C109.402 131.557 112.084 178.958 108.944 224.604Z" fill="white"/>
<path d="M74.989 198.003C75.0088 197.998 75.0292 197.994 75.0488 197.989C79.8884 196.814 76.2278 172 76.2278 172C68.8123 173.567 60.6861 197.989 60.6861 197.989C60.6861 197.989 60.7266 197.994 60.8023 198.003H74.989Z" fill="#276C9C"/>
<path d="M58.868 115.118L46.825 155.775L75.7493 172.532C63.3495 176.133 58.8441 188.571 53.7336 200.332L18.7093 172.248L40.2181 106.434L58.868 115.118Z" fill="#D9F1FF"/>
<path d="M99.5297 198.289L71.6465 198.211L64.1588 198.189C62.3295 194.261 61.3329 190.023 66.1139 183.627C66.1139 183.627 67.2942 183.514 69.1054 183.357C73.2324 182.996 80.6357 182.401 84.8075 182.378C94.4904 182.323 99.5297 198.289 99.5297 198.289Z" fill="#FFA46E"/>
<path d="M71.6465 198.211L64.1588 198.189C62.3295 194.261 61.3329 190.023 66.1139 183.627C66.1139 183.627 67.2942 183.514 69.1054 183.356C68.7163 185.839 67.8356 193.801 71.6465 198.211Z" fill="#D17743"/>
<path d="M85.6193 182.431C85.9157 182.431 94.3139 181.935 97.1792 184.117C100.044 186.298 102.712 191.356 102.712 191.356C102.712 191.356 102.218 192.447 99.8468 191.653C97.4756 190.86 95.2031 187.191 95.2031 187.191L86.7061 186.596L85.6193 182.431Z" fill="#FFA46E"/>
<path d="M96.0682 198.324C96.0265 198.324 95.9893 198.294 95.9811 198.251C94.2703 189.354 86.9707 187.409 86.8973 187.39C86.8496 187.378 86.8208 187.33 86.8328 187.282C86.8449 187.234 86.8931 187.205 86.9406 187.217C87.0153 187.236 94.4237 189.21 96.1557 198.218C96.165 198.266 96.1333 198.313 96.0852 198.322C96.0795 198.323 96.0739 198.324 96.0682 198.324Z" fill="#D66D2D"/>
<path d="M92.2886 198.272C92.253 198.272 92.2194 198.25 92.2058 198.215C90.7621 194.496 84.1677 191.914 84.1012 191.888C84.0553 191.871 84.0325 191.819 84.0501 191.773C84.0678 191.727 84.1193 191.705 84.1649 191.722C84.2322 191.748 90.8993 194.358 92.3713 198.15C92.3893 198.196 92.3666 198.248 92.3209 198.266C92.3102 198.27 92.2994 198.272 92.2886 198.272Z" fill="#D66D2D"/>
<path d="M35.3981 93.4159C34.7942 93.6029 -8.55915 157.645 4.61679 177.734C9.39872 185.025 65.2617 200.421 65.2617 200.421C62.6489 193.167 65.3411 184.061 76.2744 172.079C75.2316 172.079 38.6139 158.523 38.6139 158.523C38.6139 158.523 60.2375 117.477 60.5851 106.662C60.9327 95.8466 47.7516 89.5896 35.3981 93.4159Z" fill="white"/>
<path d="M131.964 59.228C131.964 59.228 173.006 84.6085 176.522 91.0344C180.806 98.8644 177.044 110.964 162.562 110.006C148.081 109.048 120.545 76.8444 120.545 76.8444L131.964 59.228Z" fill="white"/>
<path d="M146.75 101.546C136.476 95.4074 120.661 77.3402 120.503 77.1584L121.043 76.6833C121.201 76.8643 136.941 94.8461 147.118 100.926L146.75 101.546Z" fill="#D9F1FF"/>
<path d="M177.122 102.939C175.508 106.645 171.64 109.809 164.456 111.017C153.316 111.865 137.014 112.556 122.509 113.597C121.829 109.69 120.88 104.053 120.88 104.053C120.88 104.053 140.741 109.511 157.776 108.808C165.429 108.493 172.512 106.934 176.965 103.078C177.018 103.033 177.071 102.987 177.122 102.939Z" fill="#F2FAFF"/>
<path d="M122.219 72.2617L120.265 73.3152L118.004 70.4874L121.117 68.8086L122.219 72.2617Z" fill="#333333"/>
<path d="M122.797 83.474C122.718 83.474 122.64 83.4464 122.577 83.3901C122.44 83.2681 122.428 83.0581 122.549 82.9209C124.322 80.9197 121.258 73.1184 119.928 70.2814C119.85 70.1154 119.921 69.9174 120.086 69.8392C120.252 69.7608 120.449 69.8322 120.527 69.9984C120.73 70.431 125.468 80.6256 123.044 83.3625C122.979 83.4364 122.888 83.474 122.797 83.474Z" fill="#333333"/>
<path d="M122.486 84.8151C122.378 84.8151 122.272 84.7617 122.208 84.6635C122.109 84.5095 122.153 84.3038 122.306 84.2038L125.512 82.1184C125.665 82.0186 125.87 82.0625 125.97 82.2166C126.069 82.3706 126.025 82.5763 125.872 82.6763L122.666 84.7617C122.611 84.7979 122.548 84.8151 122.486 84.8151Z" fill="#333333"/>
<path d="M122.725 85.8913C122.616 85.8913 122.51 85.838 122.447 85.7398C122.347 85.5858 122.391 85.38 122.544 85.2801L125.75 83.1947C125.903 83.0947 126.108 83.1387 126.208 83.2929C126.307 83.4468 126.263 83.6526 126.11 83.7525L122.905 85.8379C122.849 85.8741 122.787 85.8913 122.725 85.8913Z" fill="#333333"/>
<path d="M122.963 86.9673C122.855 86.9673 122.748 86.9139 122.685 86.8157C122.585 86.6617 122.629 86.456 122.783 86.356L125.988 84.2706C126.141 84.1707 126.346 84.2146 126.446 84.3688C126.546 84.5228 126.502 84.7285 126.348 84.8285L123.143 86.9139C123.087 86.9501 123.025 86.9673 122.963 86.9673Z" fill="#333333"/>
<path d="M123.201 88.0434C123.093 88.0434 122.986 87.9901 122.923 87.8919C122.824 87.7379 122.867 87.5322 123.021 87.4322L126.226 85.347C126.38 85.2472 126.585 85.291 126.684 85.4451C126.784 85.5991 126.74 85.8049 126.587 85.9048L123.381 87.9901C123.325 88.0262 123.263 88.0434 123.201 88.0434Z" fill="#333333"/>
<path d="M123.439 89.1196C123.331 89.1196 123.225 89.0662 123.161 88.9681C123.062 88.8141 123.106 88.6083 123.259 88.5084L126.465 86.4231C126.618 86.3233 126.823 86.3672 126.923 86.5213C127.022 86.6753 126.978 86.881 126.825 86.981L123.619 89.0662C123.564 89.1024 123.501 89.1196 123.439 89.1196Z" fill="#333333"/>
<path d="M123.678 90.1959C123.569 90.1959 123.463 90.1426 123.4 90.0444C123.3 89.8904 123.344 89.6847 123.497 89.5847L126.703 87.4993C126.856 87.3995 127.061 87.4433 127.161 87.5975C127.26 87.7515 127.217 87.9572 127.063 88.0572L123.858 90.1426C123.802 90.1788 123.74 90.1959 123.678 90.1959Z" fill="#333333"/>
<path d="M123.916 91.2719C123.808 91.2719 123.701 91.2186 123.638 91.1204C123.538 90.9664 123.582 90.7607 123.736 90.6607L126.941 88.5753C127.094 88.4753 127.299 88.5193 127.399 88.6735C127.499 88.8275 127.455 89.0332 127.301 89.1332L124.096 91.2186C124.04 91.2547 123.978 91.2719 123.916 91.2719Z" fill="#333333"/>
<path d="M124.154 92.3481C124.046 92.3481 123.94 92.2947 123.876 92.1965C123.777 92.0425 123.821 91.8368 123.974 91.7368L127.179 89.6514C127.333 89.5515 127.538 89.5956 127.637 89.7496C127.737 89.9036 127.693 90.1093 127.54 90.2093L124.334 92.2947C124.279 92.3309 124.216 92.3481 124.154 92.3481Z" fill="#333333"/>
<path d="M124.393 93.4242C124.284 93.4242 124.178 93.3708 124.114 93.2726C124.015 93.1186 124.059 92.9129 124.212 92.8129L127.418 90.7275C127.571 90.6277 127.776 90.6717 127.876 90.8257C127.975 90.9797 127.931 91.1854 127.778 91.2854L124.572 93.3708C124.517 93.407 124.454 93.4242 124.393 93.4242Z" fill="#333333"/>
<path d="M124.631 94.5005C124.522 94.5005 124.416 94.4471 124.353 94.3489C124.253 94.1949 124.297 93.9892 124.45 93.8892L127.656 91.804C127.809 91.7042 128.014 91.748 128.114 91.9022C128.213 92.0561 128.17 92.2619 128.016 92.3618L124.811 94.4471C124.755 94.4833 124.693 94.5005 124.631 94.5005Z" fill="#333333"/>
<path d="M124.869 95.5765C124.761 95.5765 124.654 95.5231 124.591 95.4249C124.491 95.2709 124.535 95.0652 124.689 94.9652L127.894 92.88C128.047 92.78 128.252 92.824 128.352 92.9782C128.452 93.1321 128.408 93.3379 128.254 93.4378L125.049 95.5231C124.993 95.5593 124.931 95.5765 124.869 95.5765Z" fill="#333333"/>
<path d="M125.107 96.6526C124.999 96.6526 124.893 96.5992 124.829 96.501C124.73 96.3471 124.774 96.1413 124.927 96.0414L128.133 93.9561C128.286 93.8562 128.491 93.9003 128.591 94.0543C128.69 94.2083 128.646 94.414 128.493 94.514L125.287 96.5992C125.232 96.6354 125.169 96.6526 125.107 96.6526Z" fill="#333333"/>
<path d="M125.346 97.7289C125.237 97.7289 125.131 97.6755 125.067 97.5773C124.968 97.4233 125.012 97.2176 125.165 97.1176L128.371 95.0322C128.524 94.9324 128.729 94.9764 128.829 95.1304C128.928 95.2844 128.884 95.4901 128.731 95.5901L125.525 97.6755C125.47 97.7117 125.407 97.7289 125.346 97.7289Z" fill="#333333"/>
<path d="M125.584 98.8051C125.476 98.8051 125.369 98.7517 125.306 98.6535C125.206 98.4995 125.25 98.2938 125.404 98.1938L128.609 96.1084C128.762 96.0086 128.967 96.0525 129.067 96.2066C129.167 96.3606 129.123 96.5663 128.969 96.6663L125.764 98.7517C125.708 98.7879 125.646 98.8051 125.584 98.8051Z" fill="#333333"/>
<path d="M125.822 99.8813C125.714 99.8813 125.607 99.8279 125.544 99.7297C125.444 99.5757 125.488 99.37 125.642 99.27L128.847 97.1846C129.001 97.0848 129.206 97.1286 129.305 97.2828C129.405 97.4368 129.361 97.6425 129.208 97.7425L126.002 99.8279C125.946 99.8641 125.884 99.8813 125.822 99.8813Z" fill="#333333"/>
<path d="M126.06 100.957C125.952 100.957 125.846 100.904 125.782 100.806C125.683 100.652 125.727 100.446 125.88 100.346L129.086 98.2606C129.239 98.1606 129.444 98.2046 129.544 98.3588C129.643 98.5128 129.599 98.7185 129.446 98.8185L126.24 100.904C126.185 100.94 126.122 100.957 126.06 100.957Z" fill="#333333"/>
<path d="M129.965 141.93C129.944 141.93 129.922 141.929 129.901 141.924C129.721 141.889 129.604 141.714 129.639 141.534C133.401 122.238 131.717 105.014 129.547 102.066C128.648 100.845 127.274 101.6 127.216 101.633C127.057 101.723 126.855 101.666 126.765 101.506C126.675 101.346 126.732 101.143 126.891 101.053C127.559 100.677 129.085 100.321 130.08 101.672C132.228 104.589 134.249 121.349 130.289 141.662C130.258 141.82 130.12 141.93 129.965 141.93Z" fill="#333333"/>
<path d="M120.247 130.367L98.6967 198.436H40.8176V201.315H101.079C107.345 181.622 121.485 137.298 124.019 130.367H120.247Z" fill="#2F80ED"/>
<path d="M124.064 130.367L101.098 201.315H116.973H191.999L214.461 130.367H124.064Z" fill="#2F80ED"/>
<path d="M161.669 176.282H154.955L161.715 153.87H168.429L161.669 176.282Z" fill="white"/>
<path d="M149.511 168.445L151.544 161.707H173.874L171.841 168.445H149.511Z" fill="white"/>
</g>
<defs>
<clipPath id="clip0_18_3372">
<rect width="216" height="201" fill="white"/>
</clipPath>
</defs>
</svg>
