<svg width="198" height="52" viewBox="0 0 198 52" fill="none" xmlns="http://www.w3.org/2000/svg">
<g clip-path="url(#clip0_3_383)">
<g clip-path="url(#clip1_3_383)">
<path fill-rule="evenodd" clip-rule="evenodd" d="M19.7771 8.48463C19.7771 6.77445 21.152 5.39278 22.8537 5.39278H41.3134C43.0152 5.39278 44.39 6.77445 44.39 8.48463V9.99082H47.4666V8.48463C47.4666 5.07393 44.7073 2.30092 41.3134 2.30092H22.8537C19.4598 2.30092 16.7005 5.07393 16.7005 8.48463V9.99082H19.7771V8.48463ZM19.7771 44.5046H16.7005V45.5869C16.7005 48.9976 19.4598 51.7706 22.8537 51.7706H41.3134C44.7073 51.7706 47.4666 48.9976 47.4666 45.5869V44.5046H44.39V45.5869C44.39 47.2971 43.0152 48.6788 41.3134 48.6788H22.8537C21.152 48.6788 19.7771 47.2971 19.7771 45.5869V44.5046Z" fill="#2F80ED"/>
</g>
<path fill-rule="evenodd" clip-rule="evenodd" d="M17.3584 17.0881L18.2093 18.0475C18.4291 18.2891 18.734 18.4312 19.0601 18.4312C19.3863 18.4312 19.6983 18.2891 19.911 18.0475L20.7619 17.0881L21.0597 16.7542C22.9032 14.6791 25.6898 13.7127 28.4197 14.2101C32.199 14.8994 34.943 18.1967 34.943 22.0483V22.297C34.943 24.5924 33.9929 26.7811 32.3195 28.3445L19.2728 40.5175C19.2161 40.5744 19.1381 40.6028 19.0601 40.6028C18.9821 40.6028 18.9041 40.5673 18.8474 40.5175L5.80785 28.3445C4.12738 26.7811 3.17725 24.5924 3.17725 22.297V22.0483C3.17725 18.1967 5.9213 14.8994 9.70057 14.2101C12.4304 13.7127 15.217 14.6791 17.0606 16.7542L17.3584 17.0881ZM28.8239 11.9716C25.9167 11.4458 22.9599 12.2061 20.6839 13.9898H20.6768L20.2939 14.3096C19.9606 14.5938 19.6486 14.9065 19.3508 15.2405L19.053 15.5745L18.7552 15.2405C18.3511 14.7786 17.9044 14.3664 17.4293 13.9898C15.1532 12.199 12.1965 11.4458 9.29641 11.9716C4.43937 12.8599 0.908264 17.1024 0.908264 22.0483V22.297C0.908264 24.8553 1.83713 27.3141 3.49632 29.2328C3.7374 29.5028 3.98557 29.7657 4.25501 30.0145L17.3017 42.1804C17.7838 42.621 18.4078 42.8697 19.0601 42.8697C19.6274 42.8697 20.1804 42.6849 20.6271 42.3367L20.6272 42.3367C20.691 42.287 20.7548 42.2372 20.8115 42.1804L33.8582 30.0074C34.1276 29.7586 34.3758 29.4957 34.6168 29.2257C35.1135 28.6558 35.5447 28.0374 35.9053 27.3822H41.8027C42.9636 27.3822 43.9767 26.589 44.2617 25.4572L46.4093 16.853L50.7362 38.546C50.8153 38.9373 51.1478 39.2176 51.5435 39.2282C51.9393 39.2388 52.2875 38.9691 52.3825 38.5883L56.815 22.7084L58.1736 25.1554C58.5588 26.1179 59.4875 26.7525 60.527 26.7525H66.9804C67.4448 26.7525 67.8247 26.3718 67.8247 25.9064C67.8247 25.441 67.4448 25.0602 66.9804 25.0602H60.527C60.184 25.0602 59.8727 24.8487 59.7408 24.5261L57.4112 19.6464C57.274 19.3079 56.9363 19.0911 56.5722 19.1176C56.2081 19.144 55.8968 19.4031 55.8124 19.7575L51.6596 34.5268L47.3327 12.8338C47.2536 12.4478 46.9211 12.1622 46.5254 12.1516C46.1296 12.1411 45.7814 12.4108 45.6864 12.7915L42.6206 25.05C42.5309 25.4255 42.1932 25.6899 41.8027 25.6899H36.6515C37.0191 24.6079 37.212 23.4628 37.212 22.297V22.0483C37.212 17.1024 33.6809 12.8599 28.8239 11.9716Z" fill="#2F80ED"/>
</g>
<path d="M80.8058 34.1743V28.554L75.3508 18.9664H78.6805L82.4116 25.8383L86.1427 18.9664H89.4488L83.9938 28.554V34.1743H80.8058ZM94.311 34.4104C92.2172 34.4104 90.6822 33.9067 89.7061 32.8991C88.7301 31.8758 88.242 30.4353 88.242 28.5776C88.242 26.7199 88.7301 25.2873 89.7061 24.2797C90.698 23.2564 92.2329 22.7448 94.311 22.7448C96.4048 22.7448 97.9398 23.2564 98.9159 24.2797C99.9077 25.2873 100.404 26.7199 100.404 28.5776C100.404 30.4353 99.9155 31.8758 98.9395 32.8991C97.9634 33.9067 96.4206 34.4104 94.311 34.4104ZM94.311 31.6948C95.3343 31.6948 96.0664 31.4665 96.5072 31.0099C96.948 30.5376 97.1684 29.7269 97.1684 28.5776C97.1684 27.4284 96.948 26.6255 96.5072 26.1689C96.0664 25.6966 95.3343 25.4605 94.311 25.4605C93.3034 25.4605 92.5793 25.6966 92.1384 26.1689C91.6976 26.6255 91.4772 27.4284 91.4772 28.5776C91.4772 29.7269 91.6976 30.5376 92.1384 31.0099C92.5793 31.4665 93.3034 31.6948 94.311 31.6948ZM106.753 34.4104C105.415 34.4104 104.368 34.0405 103.612 33.3006C102.872 32.5449 102.502 31.4429 102.502 29.9945V22.9809H105.69V29.9237C105.69 30.6793 105.871 31.2303 106.233 31.5767C106.595 31.9073 107.139 32.0726 107.863 32.0726C108.414 32.0726 108.917 31.9624 109.374 31.742C109.846 31.5216 110.248 31.2461 110.578 30.9155V22.9809H113.766V34.1743H110.815L110.696 33.1116C110.224 33.4895 109.665 33.8043 109.02 34.0562C108.39 34.2924 107.634 34.4104 106.753 34.4104ZM116.48 34.1743V22.9809H119.432L119.574 24.1381C120.077 23.8232 120.699 23.5398 121.439 23.2879C122.195 23.0203 122.935 22.8393 123.659 22.7448V25.1535C123.234 25.2165 122.769 25.3109 122.266 25.4369C121.762 25.5628 121.282 25.7045 120.825 25.8619C120.369 26.0194 119.983 26.1847 119.668 26.3578V34.1743H116.48ZM127.96 34.1743V21.4224H123.284V18.9664H135.8V21.4224H131.148V34.1743H127.96ZM141.154 34.4104C139.217 34.4104 137.682 33.9303 136.549 32.97C135.415 31.9939 134.849 30.5219 134.849 28.554C134.849 26.775 135.321 25.366 136.266 24.327C137.226 23.2722 138.651 22.7448 140.54 22.7448C142.272 22.7448 143.594 23.2013 144.507 24.1144C145.436 25.0118 145.9 26.1925 145.9 27.6566V29.6875H137.801C137.974 30.5849 138.383 31.1989 139.029 31.5295C139.69 31.8601 140.619 32.0254 141.815 32.0254C142.413 32.0254 143.019 31.9703 143.633 31.8601C144.263 31.7499 144.798 31.6082 145.239 31.435V33.702C144.72 33.9382 144.114 34.1113 143.421 34.2215C142.728 34.3475 141.972 34.4104 141.154 34.4104ZM137.801 27.7275H143.114V27.1135C143.114 26.468 142.925 25.9643 142.547 25.6022C142.169 25.2243 141.532 25.0354 140.634 25.0354C139.58 25.0354 138.84 25.248 138.415 25.673C138.005 26.0981 137.801 26.7829 137.801 27.7275ZM151.237 34.4104C150.151 34.4104 149.356 34.1586 148.852 33.6548C148.364 33.151 148.12 32.3481 148.12 31.2461V18.258H151.308V30.9863C151.308 31.3799 151.387 31.6554 151.544 31.8128C151.702 31.9545 151.93 32.0254 152.229 32.0254C152.638 32.0254 153.008 31.9703 153.339 31.8601V34.0562C152.741 34.2924 152.04 34.4104 151.237 34.4104ZM160.986 34.4104C159.05 34.4104 157.515 33.9303 156.382 32.97C155.248 31.9939 154.681 30.5219 154.681 28.554C154.681 26.775 155.154 25.366 156.098 24.327C157.059 23.2722 158.483 22.7448 160.373 22.7448C162.104 22.7448 163.427 23.2013 164.34 24.1144C165.269 25.0118 165.733 26.1925 165.733 27.6566V29.6875H157.633C157.806 30.5849 158.216 31.1989 158.861 31.5295C159.522 31.8601 160.451 32.0254 161.648 32.0254C162.246 32.0254 162.852 31.9703 163.466 31.8601C164.096 31.7499 164.631 31.6082 165.072 31.435V33.702C164.552 33.9382 163.946 34.1113 163.254 34.2215C162.561 34.3475 161.805 34.4104 160.986 34.4104ZM157.633 27.7275H162.947V27.1135C162.947 26.468 162.758 25.9643 162.38 25.6022C162.002 25.2243 161.364 25.0354 160.467 25.0354C159.412 25.0354 158.672 25.248 158.247 25.673C157.838 26.0981 157.633 26.7829 157.633 27.7275ZM167.953 34.1743V18.9664H175.25C176.997 18.9664 178.28 19.4309 179.099 20.3597C179.917 21.2728 180.327 22.5086 180.327 24.0672C180.327 25.0905 180.059 25.9721 179.524 26.7121C179.004 27.452 178.264 27.9873 177.304 28.3179C177.556 28.5225 177.753 28.7429 177.894 28.9791C178.052 29.2152 178.209 29.5301 178.367 29.9237L180.209 34.1743H176.903L175.108 30.089C174.95 29.7426 174.777 29.4986 174.588 29.3569C174.399 29.2152 174.085 29.1444 173.644 29.1444H171.141V34.1743H167.953ZM171.141 26.4995H174.423C175.257 26.4995 175.911 26.3185 176.383 25.9564C176.855 25.5786 177.092 24.9488 177.092 24.0672C177.092 23.2171 176.887 22.5952 176.478 22.2017C176.068 21.8081 175.446 21.6113 174.612 21.6113H171.141V26.4995ZM181.479 34.1743L186.981 26.5468L181.62 18.9664H185.375L188.894 24.0436L192.412 18.9664H196.167L190.806 26.5468L196.309 34.1743H192.507L188.894 29.0971L185.28 34.1743H181.479Z" fill="#2F80ED"/>
<defs>
<clipPath id="clip0_3_383">
<rect width="68.1193" height="51.7706" fill="white"/>
</clipPath>
<clipPath id="clip1_3_383">
<rect width="36.9194" height="49.4697" fill="white" transform="translate(13.6239 2.30092)"/>
</clipPath>
</defs>
</svg>
