<svg width="36" height="36" viewBox="0 0 36 36" fill="none" xmlns="http://www.w3.org/2000/svg">
<g clip-path="url(#clip0_11_2172)">
<path d="M7.875 12.375C7.875 9.68968 8.94174 7.11435 10.8405 5.21554C12.7393 3.31674 15.3147 2.25 18 2.25C20.6853 2.25 23.2606 3.31674 25.1595 5.21554C27.0583 7.11435 28.125 9.68968 28.125 12.375C28.125 15.0603 27.0583 17.6356 25.1595 19.5345C23.2606 21.4333 20.6853 22.5 18 22.5C15.3147 22.5 12.7393 21.4333 10.8405 19.5345C8.94174 17.6356 7.875 15.0603 7.875 12.375ZM30.375 12.375C30.375 10.35 29.8898 8.4375 29.025 6.75H31.5C32.7445 6.75 33.75 7.75547 33.75 9V31.5C33.75 32.7445 32.7445 33.75 31.5 33.75H4.5C3.25547 33.75 2.25 32.7445 2.25 31.5V9C2.25 7.75547 3.25547 6.75 4.5 6.75H6.975C6.11016 8.4375 5.625 10.35 5.625 12.375C5.625 19.2094 11.1656 24.75 18 24.75C24.8344 24.75 30.375 19.2094 30.375 12.375ZM27.5484 4.5C25.2773 1.75078 21.8461 0 18 0C14.1539 0 10.7227 1.75078 8.45156 4.5H4.5C2.01797 4.5 0 6.51797 0 9V31.5C0 33.982 2.01797 36 4.5 36H31.5C33.982 36 36 33.982 36 31.5V9C36 6.51797 33.982 4.5 31.5 4.5H27.5484ZM13.5002 15.75C13.5002 14.3016 14.1823 13.0078 15.251 12.1852L13.5916 8.31797C13.3455 7.74844 13.6127 7.0875 14.1823 6.84141C14.7518 6.59531 15.4127 6.8625 15.6588 7.43203L17.3182 11.2992C17.5432 11.2641 17.7682 11.25 18.0002 11.25C20.4823 11.25 22.5002 13.268 22.5002 15.75C22.5002 18.232 20.4823 20.25 18.0002 20.25C15.5182 20.25 13.5002 18.232 13.5002 15.75ZM18.0002 13.5C17.4035 13.5 16.8312 13.7371 16.4092 14.159C15.9873 14.581 15.7502 15.1533 15.7502 15.75C15.7502 16.3467 15.9873 16.919 16.4092 17.341C16.8312 17.7629 17.4035 18 18.0002 18C18.597 18 19.1693 17.7629 19.5912 17.341C20.0132 16.919 20.2502 16.3467 20.2502 15.75C20.2502 15.1533 20.0132 14.581 19.5912 14.159C19.1693 13.7371 18.597 13.5 18.0002 13.5Z" fill="#2D9CDB"/>
</g>
<defs>
<clipPath id="clip0_11_2172">
<rect width="36" height="36" fill="white"/>
</clipPath>
</defs>
</svg>
