<svg width="147" height="136" viewBox="0 0 147 136" fill="none" xmlns="http://www.w3.org/2000/svg">
<g clip-path="url(#clip0_6_635)">
<g opacity="0.8">
<g filter="url(#filter0_d_6_635)">
<path d="M44.2234 86.2217C47.1059 78.1976 42.8824 69.3758 34.7901 66.5176C26.6977 63.6595 17.8009 67.8473 14.9184 75.8714C12.036 83.8956 16.2594 92.7174 24.3518 95.5755C32.4441 98.4337 41.341 94.2459 44.2234 86.2217Z" fill="white"/>
</g>
<g opacity="0.8">
<path d="M28.7426 90.3144C28.3455 90.3989 27.9292 90.334 27.576 90.1296L20.8468 86.2357C20.0672 85.7846 19.8039 84.7922 20.2589 84.0191C20.714 83.2461 21.7148 82.9852 22.4943 83.4362L27.7405 86.4718L35.1247 72.3699C35.5406 71.5754 36.5272 71.2659 37.3284 71.6784C38.1295 72.0908 38.4417 73.0691 38.0257 73.8635L29.8503 89.4767C29.6442 89.8704 29.2841 90.1632 28.8543 90.2865C28.8174 90.2972 28.78 90.3065 28.7426 90.3144Z" fill="#2F80ED"/>
</g>
</g>
<g filter="url(#filter1_d_6_635)">
<path d="M42.4038 128.041C50.7084 119.806 50.7084 106.455 42.4038 98.2209C34.0992 89.9862 20.6347 89.9862 12.3301 98.2209C4.02542 106.455 4.02542 119.806 12.3301 128.041C20.6347 136.276 34.0992 136.276 42.4038 128.041Z" fill="white"/>
</g>
<g opacity="0.8">
<path d="M26.2345 125.802C25.6915 125.917 25.1224 125.828 24.6395 125.549L15.4395 120.225C14.3736 119.609 14.0137 118.252 14.6358 117.195C15.2581 116.138 16.6262 115.781 17.692 116.398L24.8644 120.548L34.9598 101.268C35.5284 100.182 36.8774 99.7591 37.9727 100.323C39.0679 100.887 39.4948 102.224 38.9261 103.31L27.7489 124.656C27.467 125.195 26.9748 125.595 26.3872 125.764C26.3367 125.778 26.2856 125.791 26.2345 125.802Z" fill="#2F80ED"/>
</g>
<path d="M113.031 0.784851H43.0639C39.1024 0.784851 35.8795 3.98057 35.8795 7.90865V127.098C35.8795 131.026 39.1024 134.221 43.0639 134.221H113.031C116.993 134.221 120.216 131.026 120.216 127.098V7.90865C120.216 3.98057 116.993 0.784851 113.031 0.784851ZM118.91 127.098C118.91 130.311 116.273 132.926 113.031 132.926H43.0639C39.8227 132.926 37.1858 130.311 37.1858 127.098V13.7332H118.91V127.098Z" fill="#2F80ED"/>
<path d="M37.1858 127.098C37.1858 130.311 39.8227 132.926 43.0639 132.926H113.031C116.273 132.926 118.91 130.311 118.91 127.098V13.7332H37.1858V127.098Z" fill="white"/>
<path d="M110.011 9.52885C111.141 9.52885 112.057 8.62073 112.057 7.50051C112.057 6.38029 111.141 5.47217 110.011 5.47217C108.881 5.47217 107.965 6.38029 107.965 7.50051C107.965 8.62073 108.881 9.52885 110.011 9.52885Z" fill="white"/>
<path d="M102.863 9.52885C103.993 9.52885 104.909 8.62073 104.909 7.50051C104.909 6.38029 103.993 5.47217 102.863 5.47217C101.733 5.47217 100.818 6.38029 100.818 7.50051C100.818 8.62073 101.733 9.52885 102.863 9.52885Z" fill="white"/>
<path d="M95.7154 9.52885C96.8451 9.52885 97.761 8.62073 97.761 7.50051C97.761 6.38029 96.8451 5.47217 95.7154 5.47217C94.5856 5.47217 93.6698 6.38029 93.6698 7.50051C93.6698 8.62073 94.5856 9.52885 95.7154 9.52885Z" fill="white"/>
<path d="M52.6186 56.9391C48.6335 56.9391 45.3914 53.7243 45.3914 49.7728C45.3914 45.8212 48.6335 42.6064 52.6186 42.6064C56.6038 42.6064 59.8459 45.8212 59.8459 49.7728C59.8459 53.7243 56.6038 56.9391 52.6186 56.9391ZM52.6186 44.654C49.7721 44.654 47.4563 46.9502 47.4563 49.7728C47.4563 52.5953 49.7721 54.8916 52.6186 54.8916C55.4652 54.8916 57.781 52.5953 57.781 49.7728C57.781 46.9502 55.4652 44.654 52.6186 44.654Z" fill="#2D9CDB"/>
<path d="M93.2854 45.3609H64.076V48.7286H93.2854V45.3609Z" fill="#2D9CDB"/>
<path d="M110.704 50.817H64.076V54.1846H110.704V50.817Z" fill="#2D9CDB"/>
<path d="M52.6186 38.1272C48.6335 38.1272 45.3914 34.9124 45.3914 30.9609C45.3914 27.0094 48.6335 23.7946 52.6186 23.7946C56.6038 23.7946 59.8459 27.0094 59.8459 30.9609C59.8459 34.9124 56.6038 38.1272 52.6186 38.1272ZM52.6186 25.8421C49.7721 25.8421 47.4563 28.1383 47.4563 30.9609C47.4563 33.7834 49.7721 36.0797 52.6186 36.0797C55.4652 36.0797 57.781 33.7834 57.781 30.9609C57.781 28.1383 55.4652 25.8421 52.6186 25.8421Z" fill="#2D9CDB"/>
<path d="M93.2854 26.549H64.076V29.9167H93.2854V26.549Z" fill="#2D9CDB"/>
<path d="M110.704 32.0051H64.076V35.3727H110.704V32.0051Z" fill="#2D9CDB"/>
<path d="M52.6186 76.1438C48.6335 76.1438 45.3914 72.929 45.3914 68.9775C45.3914 65.026 48.6335 61.8112 52.6186 61.8112C56.6038 61.8112 59.8459 65.0259 59.8459 68.9775C59.8459 72.9291 56.6038 76.1438 52.6186 76.1438ZM52.6186 63.8587C49.7721 63.8587 47.4563 66.1549 47.4563 68.9775C47.4563 71.8001 49.7721 74.0963 52.6186 74.0963C55.4652 74.0963 57.781 71.8 57.781 68.9775C57.781 66.155 55.4652 63.8587 52.6186 63.8587Z" fill="#2D9CDB"/>
<path d="M93.2854 64.5656H64.076V67.9333H93.2854V64.5656Z" fill="#2D9CDB"/>
<path d="M110.704 70.0217H64.076V73.3894H110.704V70.0217Z" fill="#2D9CDB"/>
<path d="M52.6186 95.3485C48.6335 95.3485 45.3914 92.1337 45.3914 88.1822C45.3914 84.2307 48.6335 81.0159 52.6186 81.0159C56.6038 81.0159 59.8459 84.2307 59.8459 88.1822C59.8459 92.1337 56.6038 95.3485 52.6186 95.3485ZM52.6186 83.0634C49.7721 83.0634 47.4563 85.3597 47.4563 88.1822C47.4563 91.0047 49.7721 93.301 52.6186 93.301C55.4652 93.301 57.781 91.0047 57.781 88.1822C57.781 85.3597 55.4652 83.0634 52.6186 83.0634Z" fill="#2D9CDB"/>
<path d="M93.2854 83.7703H64.076V87.138H93.2854V83.7703Z" fill="#2D9CDB"/>
<path d="M110.704 89.2264H64.076V92.5941H110.704V89.2264Z" fill="#2D9CDB"/>
<path d="M52.6186 114.553C48.6335 114.553 45.3914 111.338 45.3914 107.387C45.3914 103.435 48.6335 100.221 52.6186 100.221C56.6038 100.221 59.8459 103.435 59.8459 107.387C59.8459 111.338 56.6038 114.553 52.6186 114.553ZM52.6186 102.268C49.7721 102.268 47.4563 104.564 47.4563 107.387C47.4563 110.209 49.7721 112.506 52.6186 112.506C55.4652 112.506 57.781 110.209 57.781 107.387C57.781 104.564 55.4652 102.268 52.6186 102.268Z" fill="#2D9CDB"/>
<path d="M93.2854 102.975H64.076V106.343H93.2854V102.975Z" fill="#2D9CDB"/>
<path d="M110.704 108.431H64.076V111.799H110.704V108.431Z" fill="#2D9CDB"/>
<path d="M125.738 44.1282C125.738 44.1282 120.921 53.3662 119.881 59.3518C120.261 64.0253 124.105 62.7289 125.088 62.4258C126.072 62.1228 125.738 44.1282 125.738 44.1282Z" fill="#E0ECFC"/>
<path d="M142.927 132.442C142.927 132.442 141.536 133.852 139.62 133.07C139.527 132.354 139.346 131.448 139.096 130.399C139.803 130.639 141.034 130.789 142.677 129.972C142.869 131.464 142.974 132.432 142.927 132.442Z" fill="url(#paint0_linear_6_635)"/>
<path d="M139.62 133.07C139.62 133.07 139.064 134.008 138.805 135.052C138.708 135.443 139.045 135.635 139.372 135.712C141.157 136.137 142.727 136.238 144.434 135.488C144.673 135.383 144.792 135.115 144.711 134.869C144.494 134.217 143.967 132.999 142.927 132.442C142.927 132.442 141.796 133.31 139.62 133.07Z" fill="#2D9CDB"/>
<path d="M124.295 128.062C124.295 128.062 124.269 129.554 124.218 130.3C124.196 130.626 127.648 132.331 128.461 130.111L128.043 128.304L125.164 127.186L124.295 128.062Z" fill="url(#paint1_linear_6_635)"/>
<path d="M117.115 133.869C123.816 134.4 127.586 134.12 128.724 134.003C128.944 133.98 129.116 133.804 129.131 133.585C129.265 131.546 128.461 130.112 128.461 130.111C128.502 130.186 128.047 130.505 127.989 130.541C127.783 130.667 127.555 130.752 127.321 130.809C126.464 131.018 125.746 130.722 124.939 130.478C123.261 129.971 121.362 129.505 119.646 130.105C118.582 130.477 117.798 131.294 117.41 132.336C117.378 132.42 117.008 133.86 117.115 133.869Z" fill="#2D9CDB"/>
<path d="M130.395 35.3155C130.395 35.3155 131.058 41.3872 129.144 42.1466C129.144 42.1466 132.122 45.324 135.17 40.665C135.17 40.665 134.561 37.4726 135.17 34.9703L130.395 35.3155Z" fill="url(#paint2_linear_6_635)"/>
<path d="M126.442 54.9969C126.469 55.0036 126.563 55.0287 126.717 55.0655C126.604 55.0454 126.511 55.0228 126.442 54.9969Z" fill="url(#paint3_linear_6_635)"/>
<path style="mix-blend-mode:multiply" opacity="0.5" d="M138.861 57.3154C138.868 57.3839 138.875 57.4513 138.883 57.5177C138.872 57.4096 138.864 57.3411 138.861 57.3154Z" fill="url(#paint4_linear_6_635)"/>
<path d="M124.358 71.0793C124.414 70.8489 124.477 70.6201 124.539 70.3912C132.654 71.4708 137.126 70.1466 139.061 69.2683C139.057 69.2828 139.053 69.2973 139.05 69.3118C139.031 69.3864 139.012 69.4619 139.012 69.5389C139.009 69.9083 139.458 70.5141 139.622 70.8883C139.805 71.3072 139.971 71.7332 140.126 72.1631C140.591 73.4524 140.95 74.7785 141.241 76.1162C142.241 80.7174 142.457 85.4753 142.293 90.1678C142.284 90.4478 142.272 90.7277 142.26 91.0075C141.581 105.987 142.16 124.69 142.573 128.241C142.78 129.856 142.895 130.904 142.843 130.915C142.843 130.915 141.338 132.441 139.263 131.596C139.162 130.82 138.966 129.839 138.695 128.702C138.695 128.702 136.509 120.093 134.922 112.359C134.067 108.191 133.141 99.2041 132.094 90.2849C132.093 90.2775 132.093 90.2742 132.093 90.2742C131.082 94.9768 129.989 99.491 129.558 101.241C129.541 101.314 129.525 101.387 129.513 101.461C129.441 101.876 129.449 102.301 129.538 102.714C131.036 109.724 129.808 117.484 128.607 124.457C128.318 126.136 127.939 127.586 128.154 129.276C126.819 129.969 124.071 129.474 124.123 129.167C124.937 124.347 124.054 119.189 123.565 114.367C122.957 108.375 122.682 102.36 122.56 96.3406C122.276 82.3945 123.545 74.6282 124.304 71.3022C124.321 71.2276 124.339 71.1535 124.358 71.0793Z" fill="#2F80ED"/>
<path d="M126.264 25.8596C126.264 25.8596 129.931 20.0309 135.495 22.6174C137.461 23.4185 138.006 25.0411 138.006 25.0411C138.006 25.0411 140.059 24.7867 140.533 27.9657C141.007 31.1448 137.363 35.8634 137.363 35.8634L134.74 28.0814L126.264 25.8596Z" fill="#4F4F4F"/>
<path d="M126.555 28.7779C126.555 28.7779 127.593 31.4911 127.264 33.6639C126.934 35.8367 128.052 38.457 130.745 39.8712C130.745 39.8712 136.476 38.7262 137.557 35.3832C137.557 35.3832 137.692 33.9332 137.835 33.0134C137.978 32.0937 139.28 31.5399 138.588 30.1057C137.896 28.6715 137.282 29.6789 137.282 29.6789C137.282 29.6789 137.048 28.5472 136.774 27.6053C136.499 26.6634 126.555 28.7779 126.555 28.7779Z" fill="url(#paint5_linear_6_635)"/>
<path d="M137.427 31.1246C137.427 31.1246 136.55 34.982 136.086 35.2217C135.623 35.4615 135.153 33.6011 135.166 32.6616C135.179 31.7222 135.045 29.6376 133.434 29.2166C131.823 28.7956 127.372 33.9896 121.305 30.5238C121.879 30.8504 122.936 30.3356 123.416 30.0154C124.376 29.3753 125.016 28.4282 125.364 27.4503C126.017 25.6153 127.695 24.2179 129.592 23.7787C133.758 22.814 138.515 26.7906 137.427 31.1246Z" fill="#4F4F4F"/>
<path d="M129.491 49.9634L130.298 51.3576L132.315 50.2793L132.27 48.2771L132.187 44.6076L130.996 44.4612L129.947 48.2918V48.2929L129.491 49.9634Z" fill="#F96969"/>
<path d="M120.002 93.4437C122.436 95.9402 125.814 96.6386 127.708 96.8306C128.478 96.9083 129.159 96.3367 129.205 95.5705C129.254 94.7435 129.328 93.7149 129.411 92.63V92.629C129.676 89.2015 130.039 85.2087 130.039 85.2087C130.327 87.6498 130.73 90.2206 131.29 92.8047C131.511 93.8288 131.758 94.8553 132.031 95.8769C132.194 96.4852 132.76 96.9014 133.394 96.8777C135.859 96.7871 141.973 96.3189 145.653 93.9337C146.13 93.6239 146.366 93.0542 146.238 92.5028C145.193 87.979 140.46 66.8288 141.333 58.5785C141.4 58.1706 141.465 57.7594 141.528 57.3466C141.583 56.9773 141.637 56.6036 141.687 56.2319C141.744 55.8201 141.798 55.4068 141.848 54.9951C141.851 54.9802 141.852 54.9648 141.853 54.9515V54.95C141.911 54.467 141.967 53.9849 142.012 53.5048C142.022 53.4152 142.03 53.3246 142.039 53.2355C142.134 52.2228 142.203 51.2206 142.235 50.2529C142.256 49.6476 142.264 49.0561 142.256 48.4825C143.264 48.7062 144.152 48.7736 144.152 48.3108V48.3093C144.152 48.2588 144.148 48.1994 144.139 48.1336C144.139 48.1326 144.139 48.1266 144.137 48.1227C144.053 47.4654 143.592 46.1409 143.147 45.0525V45.051C142.913 44.4799 142.684 43.975 142.516 43.6671C142.354 43.3707 142.091 43.139 141.774 43.0168L140.426 42.4966L138.899 41.9061L137.919 41.5275L137.915 41.525C137.249 41.1954 136.579 40.9197 135.982 40.7781L135.978 40.7766L135.971 40.7752V40.7766C135.683 40.7093 135.409 40.6712 135.164 40.6767C135.164 40.6767 133.971 42.5377 131.127 42.6461C129.499 42.6461 130.067 40.9415 130.163 40.6945C129.911 41.2161 129.145 41.721 128.694 42.0066C128.451 42.1615 128.198 42.3016 127.937 42.4278C127.933 42.4322 127.929 42.4322 127.928 42.4322C127.885 42.4555 127.843 42.4758 127.802 42.4926C127.799 42.4936 127.796 42.4951 127.795 42.4951C127.736 42.5238 127.677 42.553 127.614 42.5872C127.233 42.7753 126.762 43.0197 126.379 43.3063C126.379 43.3063 123.092 46.5977 123.887 53.3454C123.915 54.6674 124.048 56.1275 124.359 57.6361C124.434 57.9969 124.493 58.3607 124.536 58.7299C124.539 58.771 124.545 58.8126 124.549 58.8547C124.611 59.3957 124.665 59.9406 124.72 60.4855V60.4895C124.813 61.4229 124.891 62.3564 124.948 63.2567C124.982 63.8165 125.009 64.3659 125.027 64.894C125.073 66.2269 125.109 67.5707 124.892 68.8912C122.301 74.7693 120.838 83.1042 120.127 88.268C120.122 88.3017 120.117 88.3358 120.113 88.3695C119.863 90.2028 119.708 91.6253 119.632 92.3786C119.592 92.7701 119.726 93.1606 120.002 93.4437Z" fill="#E0ECFC"/>
<path d="M130.778 43.3796L130.996 44.4611L132.187 44.6076L132.936 43.5049L131.838 42.3402C131.835 42.3378 131.833 42.3353 131.831 42.3338C131.829 42.3303 131.827 42.3289 131.827 42.3289C131.827 42.3289 131.826 42.3303 131.823 42.3323L130.784 43.3717C130.781 43.3737 130.779 43.3771 130.778 43.3796Z" fill="url(#paint6_linear_6_635)"/>
<path d="M130.298 51.3577L132.315 50.2792L136.632 47.9702L134.879 45.6786L137.011 42.504L135.24 40.3445L135.124 40.204C135.124 40.204 135.11 40.2856 135.082 40.4351C134.968 41.0157 134.608 42.6693 133.848 44.7362C133.442 45.836 132.923 47.0516 132.27 48.2771C131.713 49.3215 131.059 50.3703 130.298 51.3577Z" fill="white"/>
<path d="M127.286 46.1582L129.491 49.9634L130.298 51.3577C130.131 50.2767 130.018 49.2512 129.948 48.2929V48.292C129.845 46.9447 129.826 45.7276 129.848 44.6749C129.878 43.2573 129.986 42.1318 130.079 41.3904C130.144 40.8791 130.203 40.5445 130.224 40.4208C130.231 40.3851 130.235 40.3673 130.235 40.3673L130.23 40.3718L130.205 40.3965L128.978 41.5557L128.806 41.7195L129.032 44.2428L127.286 46.1582Z" fill="white"/>
<path d="M132.187 44.6076L132.27 48.2771C132.923 47.0516 133.442 45.836 133.848 44.7362C133.595 44.3165 133.26 43.8835 132.936 43.5048L132.187 44.6076Z" fill="#B7E6EA"/>
<path d="M131.827 42.329C131.827 42.329 131.829 42.3302 131.832 42.3336C131.888 42.3867 132.397 42.873 132.936 43.5046C133.259 43.8837 133.595 44.3163 133.848 44.7364C133.959 44.9205 134.053 45.1009 134.124 45.2752C134.124 45.2752 135.421 43.0912 135.124 40.2039C135.124 40.2039 133.489 41.8823 131.827 42.329Z" fill="#E9FEFF"/>
<path d="M129.948 48.292V48.293C130.018 49.2512 130.131 50.2767 130.298 51.3577C131.059 50.3703 131.713 49.3215 132.27 48.2771L132.187 44.6076L130.996 44.4611L129.948 48.292Z" fill="url(#paint7_linear_6_635)"/>
<path d="M129.948 48.292L130.996 44.461L130.778 43.3796C130.48 43.731 130.154 44.1646 129.848 44.6749C129.826 45.7276 129.845 46.9447 129.948 48.292Z" fill="#B7E6EA"/>
<path d="M129.642 45.0389C129.709 44.913 129.778 44.7916 129.848 44.6748C130.154 44.1645 130.48 43.7308 130.778 43.3794C130.779 43.3772 130.781 43.3738 130.784 43.3716C131.33 42.7288 131.778 42.3669 131.824 42.3323C131.826 42.3301 131.827 42.329 131.827 42.329C130.682 41.5436 130.24 40.3965 130.24 40.3965C130.234 40.4043 130.23 40.4122 130.224 40.421C129.28 41.9306 129.642 45.0389 129.642 45.0389Z" fill="#E9FEFF"/>
<path d="M128.903 59.7927C128.9 60.1259 129.15 60.432 129.464 60.4759C129.779 60.5201 130.037 60.2833 130.04 59.9473C130.042 59.6118 129.788 59.3064 129.474 59.2651C129.161 59.2238 128.906 59.4599 128.903 59.7927Z" fill="#6ED6D6"/>
<path d="M129.263 54.1001C129.261 54.4257 129.509 54.7153 129.82 54.7465C130.133 54.7778 130.389 54.5369 130.391 54.2086C130.393 53.8808 130.141 53.5921 129.829 53.5633C129.519 53.5347 129.266 53.7749 129.263 54.1001Z" fill="#6ED6D6"/>
<path d="M128.317 65.5685C128.313 65.909 128.565 66.2316 128.88 66.2887C129.197 66.3461 129.457 66.114 129.46 65.7705C129.462 65.4276 129.208 65.1056 128.892 65.0512C128.578 64.9969 128.321 65.2284 128.317 65.5685Z" fill="white"/>
<path style="mix-blend-mode:multiply" d="M120.002 93.4437C122.436 95.9403 125.814 96.6386 127.708 96.8307C128.478 96.9084 129.159 96.3367 129.205 95.5705C129.254 94.7435 129.328 93.715 129.411 92.63C129.403 92.6969 129.009 95.9051 125.901 95.4112C122.794 94.9177 119.715 91.5208 120.113 88.3695C119.863 90.2028 119.708 91.6253 119.632 92.3786C119.592 92.7701 119.726 93.1606 120.002 93.4437Z" fill="#CFE2FA"/>
<path style="mix-blend-mode:multiply" d="M136.633 94.8409C140.73 94.342 143.534 90.8497 141.34 77.7355C140.871 74.931 140.593 72.1075 140.491 69.2711C140.449 68.1296 139.78 67.1035 138.749 66.595C135.383 64.9363 131.928 63.467 128.317 62.402L131.761 59.0076C131.761 59.0076 139.048 60.1885 138.892 58.2768C138.737 56.365 138.26 51.3729 138.945 51.0945C139.63 50.8162 141.049 59.2603 141.049 59.2603C141.365 57.2972 141.687 56.2319 141.687 56.2319C141.637 56.6036 141.583 56.9773 141.528 57.3465C141.465 57.7593 141.4 58.1706 141.333 58.5785C140.46 66.8288 145.193 87.979 146.238 92.5028C146.366 93.0542 146.13 93.6239 145.653 93.9337C141.973 96.3189 135.859 96.7871 133.394 96.8777C132.76 96.9014 132.194 96.4852 132.031 95.8769C131.758 94.8553 131.511 93.8287 131.29 92.8047C131.29 92.8047 132.536 95.3398 136.633 94.8409Z" fill="#CFE2FA"/>
<path d="M125.995 51.4745C125.995 51.8843 126.33 52.2169 126.744 52.2169C127.157 52.2169 127.492 51.8843 127.492 51.4745C127.492 51.078 127.179 50.7553 126.784 50.734C126.022 47.3946 126.599 45.2277 127.246 43.974C127.82 42.8633 128.536 42.2729 128.836 42.06L128.806 41.722C128.641 41.8225 127.706 42.4332 126.98 43.8389C126.311 45.1337 125.713 47.3634 126.487 50.7776C126.2 50.881 125.995 51.1538 125.995 51.4745Z" fill="#4F4F4F"/>
<path d="M132.288 63.0052C132.182 63.1115 132.024 63.1744 131.847 63.1625L122.805 62.5368C122.574 62.5205 122.38 62.3741 122.328 62.1756L119.466 51.2322C119.409 51.0164 119.531 50.8103 119.734 50.716C119.819 50.6748 119.919 50.6542 120.025 50.6618L120.158 50.6704L120.501 50.6943L129.958 51.3396C130.204 51.3558 130.404 51.5185 130.442 51.731L132.354 62.2819L132.403 62.5552L132.415 62.6235C132.441 62.7688 132.388 62.9055 132.288 63.0052Z" fill="url(#paint8_linear_6_635)"/>
<path style="mix-blend-mode:multiply" opacity="0.5" d="M132.303 62.7614L130.992 62.6707C131.245 62.6541 131.373 62.394 131.213 62.2208L127.976 58.7272L127.374 56.5335C127.374 56.5335 126.582 58.0649 126.879 59.0077C127.175 59.9505 123.652 56.0893 123.652 56.0893C123.652 56.0893 123.79 58.412 125.107 59.3985L122.559 57.6388C122.559 57.6388 123.128 59.0627 124.565 59.839C123.66 59.4544 122.315 58.8899 122.315 58.8899C122.315 58.8899 123.113 60.0546 124.18 60.5231L122.962 60.3496C122.962 60.3496 123.647 61.5397 125.425 61.9741C126.141 62.149 126.958 62.3107 127.679 62.4414L123.261 62.1357C123.03 62.1194 122.836 61.973 122.784 61.7746L119.922 50.8311C119.907 50.7737 119.905 50.7173 119.913 50.6641C119.849 50.6717 119.788 50.6901 119.734 50.7162C119.532 50.8105 119.409 51.0166 119.466 51.2324L122.328 62.1758C122.38 62.3743 122.574 62.5207 122.805 62.5369L131.847 63.1627C132.024 63.1746 132.182 63.1117 132.288 63.0054C132.356 62.9371 132.403 62.8514 132.417 62.7571C132.38 62.7625 132.343 62.7636 132.303 62.7614Z" fill="url(#paint9_linear_6_635)"/>
<path d="M127.717 61.9658C127.742 61.9691 127.755 61.9719 127.755 61.9719C127.751 61.9723 127.748 61.9737 127.744 61.974C128.284 62.1293 128.827 62.2795 129.37 62.4259C129.127 60.4957 130.575 59.3951 130.633 59.3523C130.065 59.2766 129.585 59.2159 129.223 59.1747C129.188 59.097 129.141 59.0364 129.079 58.9969C128.47 58.6033 128.562 57.8576 128.101 57.3635C127.639 56.8693 128.114 56.3728 127.992 56.2095C127.871 56.0476 127.783 56.0575 127.47 56.395C127.156 56.7313 127.355 57.3189 127.232 58.1756C127.111 59.031 126.376 58.6036 126.376 58.6036L125.223 57.6765C125.223 57.6765 124.805 56.9337 124.448 56.2545C124.091 55.5751 123.399 55.2537 123.652 56.0893C123.885 56.8512 124.653 58.3463 125.149 58.8355L124.655 58.6569C124.655 58.6569 123.971 58.0855 123.371 57.5547C122.771 57.0252 121.994 56.9314 122.559 57.6388C123.069 58.2774 124.348 59.4263 125.011 59.7548L124.549 59.6491C124.549 59.6491 123.783 59.1649 123.107 58.7108C122.431 58.2554 121.646 58.2561 122.315 58.8899C122.79 59.338 123.781 60.0433 124.528 60.4449C124.273 60.3637 123.964 60.2486 123.668 60.1001C122.981 59.7531 122.259 59.836 122.962 60.3496C123.667 60.8632 125.396 61.7401 125.948 61.7506C126.247 61.7561 126.752 61.8212 127.153 61.8785C127.333 61.9687 127.531 62.0088 127.742 61.9741C127.733 61.9709 127.726 61.9689 127.717 61.9658Z" fill="url(#paint10_linear_6_635)"/>
<path d="M146.582 61.5934C146.582 61.6184 146.582 62.0196 146.523 62.5521C146.454 63.1919 146.301 64.0237 145.962 64.6234C145.794 64.9238 145.579 65.1667 145.306 65.299C143.861 65.5431 142.707 65.4292 142.479 65.4021C142.471 65.401 142.463 65.3999 142.457 65.3988C139.77 64.9824 137.091 64.323 134.538 63.7233C133.323 63.437 132.108 63.1409 130.9 62.8275C130.388 62.6974 129.879 62.5629 129.37 62.4263C129.127 60.4959 130.575 59.3952 130.633 59.3518C131.096 59.4125 131.62 59.483 132.186 59.5589C134.9 59.9287 138.584 60.4515 141.375 60.8462C143.182 61.1011 144.616 61.3028 145.17 61.3733C145.615 61.5294 146.081 61.5945 146.553 61.5934H146.582Z" fill="#E0ECFC"/>
<path d="M139.23 53.2991C139.69 55.5788 140.562 57.8026 141.169 60.0577C141.237 60.3092 141.307 60.5743 141.374 60.8463C141.58 61.6718 141.747 62.5698 141.661 63.4144L142.486 63.6468L145.963 64.624C146.301 64.024 146.453 63.1916 146.523 62.552C146.534 62.2335 146.545 61.9137 146.553 61.5939C146.631 58.6855 146.561 55.7538 146.273 52.8659C146.002 50.116 145.907 46.6034 143.82 44.3524C143.62 44.1337 143.397 43.9273 143.156 43.7346C143.084 43.6772 143.012 43.6225 142.938 43.5679C142.646 43.356 142.374 43.2084 142.122 43.1168C141.487 42.8845 140.971 42.9966 140.56 43.2767C139.523 43.982 139.139 45.7519 139.126 45.8066C138.84 48.2449 138.754 50.8936 139.23 53.2991Z" fill="#E0ECFC"/>
<path d="M135.175 53.5815C135.442 53.6483 135.713 53.4874 135.781 53.2222C135.848 52.9574 135.686 52.6881 135.418 52.6213C135.408 52.6188 135.397 52.6168 135.386 52.6149C135.295 51.7581 135.296 50.8538 135.392 50.0223C135.48 49.269 135.733 48.6681 136.147 48.2296C136.258 48.1118 136.381 48.0054 136.515 47.9114C136.53 47.9005 136.546 47.8896 136.562 47.8797C137.142 47.4916 137.861 47.3669 138.545 47.5382C139.198 47.701 139.747 48.1133 140.089 48.6983C140.433 49.2853 140.525 49.9941 140.343 50.6425C140.193 51.1751 139.899 51.666 139.615 52.1412C139.578 52.2021 139.542 52.2634 139.506 52.3243C139.29 52.6881 139.034 53.0598 138.729 53.4523C138.71 53.4449 138.691 53.439 138.671 53.434C138.404 53.3672 138.133 53.5281 138.065 53.7928C137.998 54.0581 138.16 54.3269 138.428 54.3937C138.695 54.4605 138.966 54.2997 139.034 54.0344C139.07 53.8928 139.039 53.7498 138.963 53.6374C139.277 53.2335 139.541 52.8504 139.764 52.4748C139.8 52.4139 139.836 52.3535 139.873 52.2927C140.167 51.8012 140.471 51.2928 140.631 50.7222C140.835 49.9971 140.732 49.2052 140.348 48.5493C139.991 47.9391 139.433 47.4971 138.767 47.2917C138.95 46.622 139.594 43.8622 138.327 42.021C137.691 41.0964 136.673 40.5564 135.298 40.4149L135.572 40.7494C136.701 40.9256 137.543 41.4082 138.079 42.1878C139.263 43.9067 138.642 46.5963 138.476 47.2184C137.747 47.0759 136.993 47.2278 136.381 47.6421C136.368 47.651 136.355 47.6599 136.342 47.6688C136.01 47.9025 135.741 48.1994 135.536 48.5563C135.307 48.9582 135.159 49.4368 135.095 49.9887C134.996 50.8425 134.995 51.7715 135.089 52.652C134.956 52.7124 134.851 52.8292 134.812 52.9806C134.746 53.2454 134.907 53.5147 135.175 53.5815Z" fill="#4F4F4F"/>
<path d="M130.38 37.9668C130.977 37.9668 131.461 37.6467 131.461 37.2518C131.461 36.857 130.977 36.5369 130.38 36.5369C129.782 36.5369 129.298 36.857 129.298 37.2518C129.298 37.6467 129.782 37.9668 130.38 37.9668Z" fill="#FF7B7B"/>
</g>
<defs>
<filter id="filter0_d_6_635" x="12.0124" y="65.6193" width="33.1171" height="31.8547" filterUnits="userSpaceOnUse" color-interpolation-filters="sRGB">
<feFlood flood-opacity="0" result="BackgroundImageFix"/>
<feColorMatrix in="SourceAlpha" type="matrix" values="0 0 0 0 0 0 0 0 0 0 0 0 0 0 0 0 0 0 127 0" result="hardAlpha"/>
<feOffset dx="-2" dy="1"/>
<feComposite in2="hardAlpha" operator="out"/>
<feColorMatrix type="matrix" values="0 0 0 0 0.196078 0 0 0 0 0.203922 0 0 0 0 0.301961 0 0 0 0.23 0"/>
<feBlend mode="normal" in2="BackgroundImageFix" result="effect1_dropShadow_6_635"/>
<feBlend mode="normal" in="SourceGraphic" in2="effect1_dropShadow_6_635" result="shape"/>
</filter>
<filter id="filter1_d_6_635" x="4.10156" y="92.0449" width="44.5307" height="43.172" filterUnits="userSpaceOnUse" color-interpolation-filters="sRGB">
<feFlood flood-opacity="0" result="BackgroundImageFix"/>
<feColorMatrix in="SourceAlpha" type="matrix" values="0 0 0 0 0 0 0 0 0 0 0 0 0 0 0 0 0 0 127 0" result="hardAlpha"/>
<feOffset dx="-2" dy="1"/>
<feComposite in2="hardAlpha" operator="out"/>
<feColorMatrix type="matrix" values="0 0 0 0 0.196078 0 0 0 0 0.203922 0 0 0 0 0.301961 0 0 0 0.23 0"/>
<feBlend mode="normal" in2="BackgroundImageFix" result="effect1_dropShadow_6_635"/>
<feBlend mode="normal" in="SourceGraphic" in2="effect1_dropShadow_6_635" result="shape"/>
</filter>
<linearGradient id="paint0_linear_6_635" x1="140.927" y1="130.461" x2="141.402" y2="132.754" gradientUnits="userSpaceOnUse">
<stop stop-color="#F0877E"/>
<stop offset="1" stop-color="#FABEB2"/>
</linearGradient>
<linearGradient id="paint1_linear_6_635" x1="125.525" y1="126.333" x2="126.568" y2="131.532" gradientUnits="userSpaceOnUse">
<stop stop-color="#F0877E"/>
<stop offset="1" stop-color="#FABEB2"/>
</linearGradient>
<linearGradient id="paint2_linear_6_635" x1="132.453" y1="35.7072" x2="132.168" y2="41.2993" gradientUnits="userSpaceOnUse">
<stop stop-color="#F0877E"/>
<stop offset="1" stop-color="#FABEB2"/>
</linearGradient>
<linearGradient id="paint3_linear_6_635" x1="125.207" y1="47.283" x2="130.966" y2="80.3478" gradientUnits="userSpaceOnUse">
<stop stop-color="#E7C400"/>
<stop offset="1" stop-color="#E77F00"/>
</linearGradient>
<linearGradient id="paint4_linear_6_635" x1="138.898" y1="57.2696" x2="138.84" y2="57.6012" gradientUnits="userSpaceOnUse">
<stop stop-color="#E7C400"/>
<stop offset="1" stop-color="#E77F00"/>
</linearGradient>
<linearGradient id="paint5_linear_6_635" x1="136.756" y1="24.4801" x2="135.655" y2="36.3264" gradientUnits="userSpaceOnUse">
<stop stop-color="#F0877E"/>
<stop offset="1" stop-color="#FABEB2"/>
</linearGradient>
<linearGradient id="paint6_linear_6_635" x1="129.548" y1="51.8701" x2="132.662" y2="40.3106" gradientUnits="userSpaceOnUse">
<stop stop-color="#005A8B"/>
<stop offset="1" stop-color="#001145"/>
</linearGradient>
<linearGradient id="paint7_linear_6_635" x1="130.086" y1="52.015" x2="133.2" y2="40.4555" gradientUnits="userSpaceOnUse">
<stop stop-color="#005A8B"/>
<stop offset="1" stop-color="#001145"/>
</linearGradient>
<linearGradient id="paint8_linear_6_635" x1="126.914" y1="54.7369" x2="118.673" y2="73.387" gradientUnits="userSpaceOnUse">
<stop stop-color="#FFC15C"/>
<stop offset="1" stop-color="#FF5600"/>
</linearGradient>
<linearGradient id="paint9_linear_6_635" x1="126.235" y1="54.689" x2="124.09" y2="70.9499" gradientUnits="userSpaceOnUse">
<stop stop-color="#FFC15C"/>
<stop offset="1" stop-color="#FF5600"/>
</linearGradient>
<linearGradient id="paint10_linear_6_635" x1="145.037" y1="62.7248" x2="126.304" y2="58.744" gradientUnits="userSpaceOnUse">
<stop stop-color="#F0877E"/>
<stop offset="1" stop-color="#FABEB2"/>
</linearGradient>
<clipPath id="clip0_6_635">
<rect width="147" height="136" fill="white"/>
</clipPath>
</defs>
</svg>
